<svg xmlns="http://www.w3.org/2000/svg" xmlns:xlink="http://www.w3.org/1999/xlink" xmlns:lucid="lucid" width="1496" height="3512"><g transform="translate(3780 9492)" lucid:page-tab-id="NHMIVnqwenUET"><path d="M-2960-9227a5 5 0 0 1 5-5h470a5 5 0 0 1 5 5v638a5 5 0 0 1-5 5h-470a5 5 0 0 1-5-5z" fill="#fff"/><path d="M-2960-9192v-35a5 5 0 0 1 5-5h470a5 5 0 0 1 5 5v35" fill="#c7e8ac"/><path d="M-2960-9227a5 5 0 0 1 5-5h470a5 5 0 0 1 5 5v638a5 5 0 0 1-5 5h-470a5 5 0 0 1-5-5zM-2960-9192h480M-2900-9192v608" stroke="#000" stroke-width="2" fill="none"/><use xlink:href="#a" transform="matrix(1,0,0,1,-2950,-9232) translate(169.325 23.6)"/><use xlink:href="#b" transform="matrix(1,0,0,1,-2950,-9232) translate(217.77499999999998 23.6)"/><use xlink:href="#c" transform="matrix(1,0,0,1,-2955,-9189.5) translate(-0.9750000000000014 17.1)"/><use xlink:href="#d" transform="matrix(1,0,0,1,-2895,-9189.5) translate(0 17.1)"/><use xlink:href="#e" transform="matrix(1,0,0,1,-2895,-9189.5) translate(115.75000000000001 17.1)"/><use xlink:href="#f" transform="matrix(1,0,0,1,-2955,-9157.5) translate(13 17.1)"/><use xlink:href="#g" transform="matrix(1,0,0,1,-2895,-9157.5) translate(0 17.1)"/><use xlink:href="#h" transform="matrix(1,0,0,1,-2895,-9157.5) translate(77.9 17.1)"/><use xlink:href="#i" transform="matrix(1,0,0,1,-2955,-9125.5) translate(13.524999999999999 17.1)"/><use xlink:href="#j" transform="matrix(1,0,0,1,-2895,-9125.5) translate(0 17.1)"/><use xlink:href="#k" transform="matrix(1,0,0,1,-2895,-9125.5) translate(83.80000000000001 17.1)"/><use xlink:href="#l" transform="matrix(1,0,0,1,-2895,-9125.5) translate(163.75 17.1)"/><use xlink:href="#m" transform="matrix(1,0,0,1,-2895,-9093.5) translate(0 17.1)"/><use xlink:href="#n" transform="matrix(1,0,0,1,-2895,-9093.5) translate(47.5 17.1)"/><use xlink:href="#o" transform="matrix(1,0,0,1,-2895,-9093.5) translate(124.45 17.1)"/><use xlink:href="#m" transform="matrix(1,0,0,1,-2895,-9061.5) translate(0 17.1)"/><use xlink:href="#n" transform="matrix(1,0,0,1,-2895,-9061.5) translate(47.5 17.1)"/><use xlink:href="#p" transform="matrix(1,0,0,1,-2895,-9061.5) translate(124.45 17.1)"/><use xlink:href="#m" transform="matrix(1,0,0,1,-2895,-9029.5) translate(0 17.1)"/><use xlink:href="#n" transform="matrix(1,0,0,1,-2895,-9029.5) translate(47.5 17.1)"/><use xlink:href="#q" transform="matrix(1,0,0,1,-2895,-9029.5) translate(124.45 17.1)"/><use xlink:href="#m" transform="matrix(1,0,0,1,-2895,-8997.5) translate(0 17.1)"/><use xlink:href="#n" transform="matrix(1,0,0,1,-2895,-8997.5) translate(47.5 17.1)"/><use xlink:href="#r" transform="matrix(1,0,0,1,-2895,-8997.5) translate(124.45 17.1)"/><use xlink:href="#m" transform="matrix(1,0,0,1,-2895,-8965.5) translate(0 17.1)"/><use xlink:href="#n" transform="matrix(1,0,0,1,-2895,-8965.5) translate(47.5 17.1)"/><use xlink:href="#s" transform="matrix(1,0,0,1,-2895,-8965.5) translate(124.45 17.1)"/><use xlink:href="#m" transform="matrix(1,0,0,1,-2895,-8933.5) translate(0 17.1)"/><use xlink:href="#n" transform="matrix(1,0,0,1,-2895,-8933.5) translate(47.5 17.1)"/><use xlink:href="#t" transform="matrix(1,0,0,1,-2895,-8933.5) translate(124.45 17.1)"/><use xlink:href="#m" transform="matrix(1,0,0,1,-2895,-8901.5) translate(0 17.1)"/><use xlink:href="#n" transform="matrix(1,0,0,1,-2895,-8901.5) translate(47.5 17.1)"/><use xlink:href="#u" transform="matrix(1,0,0,1,-2895,-8901.5) translate(124.45 17.1)"/><use xlink:href="#m" transform="matrix(1,0,0,1,-2895,-8869.5) translate(0 17.1)"/><use xlink:href="#n" transform="matrix(1,0,0,1,-2895,-8869.5) translate(47.5 17.1)"/><use xlink:href="#v" transform="matrix(1,0,0,1,-2895,-8869.5) translate(124.45 17.1)"/><use xlink:href="#m" transform="matrix(1,0,0,1,-2895,-8837.5) translate(0 17.1)"/><use xlink:href="#n" transform="matrix(1,0,0,1,-2895,-8837.5) translate(47.5 17.1)"/><use xlink:href="#w" transform="matrix(1,0,0,1,-2895,-8837.5) translate(124.45 17.1)"/><use xlink:href="#m" transform="matrix(1,0,0,1,-2895,-8805.5) translate(0 17.1)"/><use xlink:href="#n" transform="matrix(1,0,0,1,-2895,-8805.5) translate(47.5 17.1)"/><use xlink:href="#x" transform="matrix(1,0,0,1,-2895,-8805.5) translate(124.45 17.1)"/><use xlink:href="#m" transform="matrix(1,0,0,1,-2895,-8773.5) translate(0 17.1)"/><use xlink:href="#n" transform="matrix(1,0,0,1,-2895,-8773.5) translate(47.5 17.1)"/><use xlink:href="#y" transform="matrix(1,0,0,1,-2895,-8773.5) translate(124.45 17.1)"/><use xlink:href="#m" transform="matrix(1,0,0,1,-2895,-8741.5) translate(0 17.1)"/><use xlink:href="#n" transform="matrix(1,0,0,1,-2895,-8741.5) translate(47.5 17.1)"/><use xlink:href="#z" transform="matrix(1,0,0,1,-2895,-8741.5) translate(124.45 17.1)"/><use xlink:href="#m" transform="matrix(1,0,0,1,-2895,-8709.5) translate(0 17.1)"/><use xlink:href="#n" transform="matrix(1,0,0,1,-2895,-8709.5) translate(47.5 17.1)"/><use xlink:href="#A" transform="matrix(1,0,0,1,-2895,-8709.5) translate(124.45 17.1)"/><use xlink:href="#m" transform="matrix(1,0,0,1,-2895,-8677.5) translate(0 17.1)"/><use xlink:href="#n" transform="matrix(1,0,0,1,-2895,-8677.5) translate(47.5 17.1)"/><use xlink:href="#B" transform="matrix(1,0,0,1,-2895,-8677.5) translate(124.45 17.1)"/><use xlink:href="#m" transform="matrix(1,0,0,1,-2895,-8645.5) translate(0 17.1)"/><use xlink:href="#C" transform="matrix(1,0,0,1,-2895,-8645.5) translate(47.5 17.1)"/><use xlink:href="#D" transform="matrix(1,0,0,1,-2895,-8613.5) translate(0 17.1)"/><path d="M-3099.05-8936h54.03a5 5 0 0 0 5-5v-166a5 5 0 0 1 5-5h35.03" stroke="#000" stroke-width="2" fill="none"/><path d="M-3099.05-8926v-20M-3119.05-8936h20" stroke="#000" stroke-width="2" fill="#fff"/><path d="M-2961.44-9102l-20-10 20-10" stroke="#000" stroke-width="2" fill="#fff" fill-opacity="0"/><path d="M-2961.44-9112h-20M-2981.44-9112c0 5.52-4.47 10-10 10-5.52 0-10-4.48-10-10s4.48-10 10-10c5.53 0 10 4.48 10 10" stroke="#000" stroke-width="2" fill="#fff"/><path d="M-2960-8443a5 5 0 0 1 5-5h470a5 5 0 0 1 5 5v350a5 5 0 0 1-5 5h-470a5 5 0 0 1-5-5z" fill="#fff"/><path d="M-2960-8408v-35a5 5 0 0 1 5-5h470a5 5 0 0 1 5 5v35" fill="#c7e8ac"/><path d="M-2960-8443a5 5 0 0 1 5-5h470a5 5 0 0 1 5 5v350a5 5 0 0 1-5 5h-470a5 5 0 0 1-5-5zM-2960-8408h480M-2900-8408v320" stroke="#000" stroke-width="2" fill="none"/><use xlink:href="#E" transform="matrix(1,0,0,1,-2950,-8448) translate(179.575 23.6)"/><use xlink:href="#b" transform="matrix(1,0,0,1,-2950,-8448) translate(207.52499999999998 23.6)"/><use xlink:href="#c" transform="matrix(1,0,0,1,-2955,-8405.5) translate(-0.9750000000000014 17.1)"/><use xlink:href="#d" transform="matrix(1,0,0,1,-2895,-8405.5) translate(0 17.1)"/><use xlink:href="#e" transform="matrix(1,0,0,1,-2895,-8405.5) translate(115.75000000000001 17.1)"/><use xlink:href="#f" transform="matrix(1,0,0,1,-2955,-8373.5) translate(13 17.1)"/><use xlink:href="#g" transform="matrix(1,0,0,1,-2895,-8373.5) translate(0 17.1)"/><use xlink:href="#h" transform="matrix(1,0,0,1,-2895,-8373.5) translate(77.9 17.1)"/><use xlink:href="#i" transform="matrix(1,0,0,1,-2955,-8341.5) translate(13.524999999999999 17.1)"/><use xlink:href="#j" transform="matrix(1,0,0,1,-2895,-8341.5) translate(0 17.1)"/><use xlink:href="#k" transform="matrix(1,0,0,1,-2895,-8341.5) translate(83.80000000000001 17.1)"/><use xlink:href="#l" transform="matrix(1,0,0,1,-2895,-8341.5) translate(163.75 17.1)"/><use xlink:href="#F" transform="matrix(1,0,0,1,-2895,-8309.5) translate(0 17.1)"/><use xlink:href="#n" transform="matrix(1,0,0,1,-2895,-8309.5) translate(27 17.1)"/><use xlink:href="#o" transform="matrix(1,0,0,1,-2895,-8309.5) translate(103.95 17.1)"/><use xlink:href="#F" transform="matrix(1,0,0,1,-2895,-8277.5) translate(0 17.1)"/><use xlink:href="#n" transform="matrix(1,0,0,1,-2895,-8277.5) translate(27 17.1)"/><use xlink:href="#p" transform="matrix(1,0,0,1,-2895,-8277.5) translate(103.95 17.1)"/><use xlink:href="#F" transform="matrix(1,0,0,1,-2895,-8245.5) translate(0 17.1)"/><use xlink:href="#n" transform="matrix(1,0,0,1,-2895,-8245.5) translate(27 17.1)"/><use xlink:href="#q" transform="matrix(1,0,0,1,-2895,-8245.5) translate(103.95 17.1)"/><use xlink:href="#F" transform="matrix(1,0,0,1,-2895,-8213.5) translate(0 17.1)"/><use xlink:href="#n" transform="matrix(1,0,0,1,-2895,-8213.5) translate(27 17.1)"/><use xlink:href="#r" transform="matrix(1,0,0,1,-2895,-8213.5) translate(103.95 17.1)"/><use xlink:href="#F" transform="matrix(1,0,0,1,-2895,-8181.5) translate(0 17.1)"/><use xlink:href="#n" transform="matrix(1,0,0,1,-2895,-8181.5) translate(27 17.1)"/><use xlink:href="#s" transform="matrix(1,0,0,1,-2895,-8181.5) translate(103.95 17.1)"/><use xlink:href="#F" transform="matrix(1,0,0,1,-2895,-8149.5) translate(0 17.1)"/><use xlink:href="#C" transform="matrix(1,0,0,1,-2895,-8149.5) translate(27 17.1)"/><use xlink:href="#D" transform="matrix(1,0,0,1,-2895,-8117.5) translate(0 17.1)"/><path d="M-3099.05-8936h54.04a5 5 0 0 1 5 5v598a5 5 0 0 0 5 5h35.02" stroke="#000" stroke-width="2" fill="none"/><path d="M-3099.05-8926v-20M-3119.05-8936h20" stroke="#000" stroke-width="2" fill="#fff"/><path d="M-2961.43-8318l-20-10 20-10" stroke="#000" stroke-width="2" fill="#fff" fill-opacity="0"/><path d="M-2961.43-8328h-20M-2981.43-8328c0 5.52-4.47 10-10 10-5.52 0-10-4.48-10-10s4.48-10 10-10c5.53 0 10 4.48 10 10" stroke="#000" stroke-width="2" fill="#fff"/><path d="M-2960-7947a5 5 0 0 1 5-5h470a5 5 0 0 1 5 5v1758a5 5 0 0 1-5 5h-470a5 5 0 0 1-5-5z" fill="#fff"/><path d="M-2960-7912v-35a5 5 0 0 1 5-5h470a5 5 0 0 1 5 5v35" fill="#c7e8ac"/><path d="M-2960-7947a5 5 0 0 1 5-5h470a5 5 0 0 1 5 5v1758a5 5 0 0 1-5 5h-470a5 5 0 0 1-5-5zM-2960-7912h480M-2900-7912v1728" stroke="#000" stroke-width="2" fill="none"/><use xlink:href="#G" transform="matrix(1,0,0,1,-2950,-7952) translate(171.575 23.6)"/><use xlink:href="#b" transform="matrix(1,0,0,1,-2950,-7952) translate(215.52499999999998 23.6)"/><use xlink:href="#c" transform="matrix(1,0,0,1,-2955,-7909.5) translate(-0.9750000000000014 17.1)"/><use xlink:href="#d" transform="matrix(1,0,0,1,-2895,-7909.5) translate(0 17.1)"/><use xlink:href="#e" transform="matrix(1,0,0,1,-2895,-7909.5) translate(115.75000000000001 17.1)"/><use xlink:href="#f" transform="matrix(1,0,0,1,-2955,-7877.5) translate(13 17.1)"/><use xlink:href="#g" transform="matrix(1,0,0,1,-2895,-7877.5) translate(0 17.1)"/><use xlink:href="#h" transform="matrix(1,0,0,1,-2895,-7877.5) translate(77.9 17.1)"/><use xlink:href="#i" transform="matrix(1,0,0,1,-2955,-7845.5) translate(13.524999999999999 17.1)"/><use xlink:href="#j" transform="matrix(1,0,0,1,-2895,-7845.5) translate(0 17.1)"/><use xlink:href="#k" transform="matrix(1,0,0,1,-2895,-7845.5) translate(83.80000000000001 17.1)"/><use xlink:href="#l" transform="matrix(1,0,0,1,-2895,-7845.5) translate(163.75 17.1)"/><use xlink:href="#H" transform="matrix(1,0,0,1,-2895,-7813.5) translate(0 17.1)"/><use xlink:href="#I" transform="matrix(1,0,0,1,-2895,-7813.5) translate(43.95 17.1)"/><use xlink:href="#H" transform="matrix(1,0,0,1,-2895,-7781.5) translate(0 17.1)"/><use xlink:href="#n" transform="matrix(1,0,0,1,-2895,-7781.5) translate(43.95 17.1)"/><use xlink:href="#o" transform="matrix(1,0,0,1,-2895,-7781.5) translate(120.9 17.1)"/><use xlink:href="#H" transform="matrix(1,0,0,1,-2895,-7749.5) translate(0 17.1)"/><use xlink:href="#n" transform="matrix(1,0,0,1,-2895,-7749.5) translate(43.95 17.1)"/><use xlink:href="#p" transform="matrix(1,0,0,1,-2895,-7749.5) translate(120.9 17.1)"/><use xlink:href="#H" transform="matrix(1,0,0,1,-2895,-7717.5) translate(0 17.1)"/><use xlink:href="#n" transform="matrix(1,0,0,1,-2895,-7717.5) translate(43.95 17.1)"/><use xlink:href="#q" transform="matrix(1,0,0,1,-2895,-7717.5) translate(120.9 17.1)"/><use xlink:href="#H" transform="matrix(1,0,0,1,-2895,-7685.5) translate(0 17.1)"/><use xlink:href="#n" transform="matrix(1,0,0,1,-2895,-7685.5) translate(43.95 17.1)"/><use xlink:href="#r" transform="matrix(1,0,0,1,-2895,-7685.5) translate(120.9 17.1)"/><use xlink:href="#H" transform="matrix(1,0,0,1,-2895,-7653.5) translate(0 17.1)"/><use xlink:href="#n" transform="matrix(1,0,0,1,-2895,-7653.5) translate(43.95 17.1)"/><use xlink:href="#s" transform="matrix(1,0,0,1,-2895,-7653.5) translate(120.9 17.1)"/><use xlink:href="#J" transform="matrix(1,0,0,1,-2895,-7621.5) translate(0 17.1)"/><use xlink:href="#K" transform="matrix(1,0,0,1,-2895,-7621.5) translate(43.95 17.1)"/><use xlink:href="#L" transform="matrix(1,0,0,1,-2895,-7621.5) translate(120.9 17.1)"/><use xlink:href="#J" transform="matrix(1,0,0,1,-2895,-7589.5) translate(0 17.1)"/><use xlink:href="#K" transform="matrix(1,0,0,1,-2895,-7589.5) translate(43.95 17.1)"/><use xlink:href="#M" transform="matrix(1,0,0,1,-2895,-7589.5) translate(120.9 17.1)"/><use xlink:href="#J" transform="matrix(1,0,0,1,-2895,-7557.5) translate(0 17.1)"/><use xlink:href="#K" transform="matrix(1,0,0,1,-2895,-7557.5) translate(43.95 17.1)"/><use xlink:href="#N" transform="matrix(1,0,0,1,-2895,-7557.5) translate(120.9 17.1)"/><use xlink:href="#J" transform="matrix(1,0,0,1,-2895,-7525.5) translate(0 17.1)"/><use xlink:href="#K" transform="matrix(1,0,0,1,-2895,-7525.5) translate(43.95 17.1)"/><use xlink:href="#O" transform="matrix(1,0,0,1,-2895,-7525.5) translate(120.9 17.1)"/><use xlink:href="#J" transform="matrix(1,0,0,1,-2895,-7493.5) translate(0 17.1)"/><use xlink:href="#K" transform="matrix(1,0,0,1,-2895,-7493.5) translate(43.95 17.1)"/><use xlink:href="#P" transform="matrix(1,0,0,1,-2895,-7493.5) translate(120.9 17.1)"/><use xlink:href="#J" transform="matrix(1,0,0,1,-2895,-7461.5) translate(0 17.1)"/><use xlink:href="#K" transform="matrix(1,0,0,1,-2895,-7461.5) translate(43.95 17.1)"/><use xlink:href="#Q" transform="matrix(1,0,0,1,-2895,-7461.5) translate(120.9 17.1)"/><use xlink:href="#J" transform="matrix(1,0,0,1,-2895,-7429.5) translate(0 17.1)"/><use xlink:href="#K" transform="matrix(1,0,0,1,-2895,-7429.5) translate(43.95 17.1)"/><use xlink:href="#R" transform="matrix(1,0,0,1,-2895,-7429.5) translate(120.9 17.1)"/><use xlink:href="#J" transform="matrix(1,0,0,1,-2895,-7397.5) translate(0 17.1)"/><use xlink:href="#K" transform="matrix(1,0,0,1,-2895,-7397.5) translate(43.95 17.1)"/><use xlink:href="#S" transform="matrix(1,0,0,1,-2895,-7397.5) translate(120.9 17.1)"/><use xlink:href="#J" transform="matrix(1,0,0,1,-2895,-7365.5) translate(0 17.1)"/><use xlink:href="#K" transform="matrix(1,0,0,1,-2895,-7365.5) translate(43.95 17.1)"/><use xlink:href="#T" transform="matrix(1,0,0,1,-2895,-7365.5) translate(120.9 17.1)"/><use xlink:href="#J" transform="matrix(1,0,0,1,-2895,-7333.5) translate(0 17.1)"/><use xlink:href="#K" transform="matrix(1,0,0,1,-2895,-7333.5) translate(43.95 17.1)"/><use xlink:href="#U" transform="matrix(1,0,0,1,-2895,-7333.5) translate(120.9 17.1)"/><use xlink:href="#J" transform="matrix(1,0,0,1,-2895,-7301.5) translate(0 17.1)"/><use xlink:href="#K" transform="matrix(1,0,0,1,-2895,-7301.5) translate(43.95 17.1)"/><use xlink:href="#V" transform="matrix(1,0,0,1,-2895,-7301.5) translate(120.9 17.1)"/><use xlink:href="#J" transform="matrix(1,0,0,1,-2895,-7269.5) translate(0 17.1)"/><use xlink:href="#K" transform="matrix(1,0,0,1,-2895,-7269.5) translate(43.95 17.1)"/><use xlink:href="#W" transform="matrix(1,0,0,1,-2895,-7269.5) translate(120.9 17.1)"/><use xlink:href="#J" transform="matrix(1,0,0,1,-2895,-7237.5) translate(0 17.1)"/><use xlink:href="#K" transform="matrix(1,0,0,1,-2895,-7237.5) translate(43.95 17.1)"/><use xlink:href="#X" transform="matrix(1,0,0,1,-2895,-7237.5) translate(120.9 17.1)"/><use xlink:href="#J" transform="matrix(1,0,0,1,-2895,-7205.5) translate(0 17.1)"/><use xlink:href="#K" transform="matrix(1,0,0,1,-2895,-7205.5) translate(43.95 17.1)"/><use xlink:href="#Y" transform="matrix(1,0,0,1,-2895,-7205.5) translate(120.9 17.1)"/><use xlink:href="#J" transform="matrix(1,0,0,1,-2895,-7173.5) translate(0 17.1)"/><use xlink:href="#K" transform="matrix(1,0,0,1,-2895,-7173.5) translate(43.95 17.1)"/><use xlink:href="#Z" transform="matrix(1,0,0,1,-2895,-7173.5) translate(120.9 17.1)"/><use xlink:href="#J" transform="matrix(1,0,0,1,-2895,-7141.5) translate(0 17.1)"/><use xlink:href="#K" transform="matrix(1,0,0,1,-2895,-7141.5) translate(43.95 17.1)"/><use xlink:href="#aa" transform="matrix(1,0,0,1,-2895,-7141.5) translate(120.9 17.1)"/><use xlink:href="#J" transform="matrix(1,0,0,1,-2895,-7109.5) translate(0 17.1)"/><use xlink:href="#K" transform="matrix(1,0,0,1,-2895,-7109.5) translate(43.95 17.1)"/><use xlink:href="#ab" transform="matrix(1,0,0,1,-2895,-7109.5) translate(120.9 17.1)"/><use xlink:href="#J" transform="matrix(1,0,0,1,-2895,-7077.5) translate(0 17.1)"/><use xlink:href="#K" transform="matrix(1,0,0,1,-2895,-7077.5) translate(43.95 17.1)"/><use xlink:href="#ac" transform="matrix(1,0,0,1,-2895,-7077.5) translate(120.9 17.1)"/><use xlink:href="#J" transform="matrix(1,0,0,1,-2895,-7045.5) translate(0 17.1)"/><use xlink:href="#K" transform="matrix(1,0,0,1,-2895,-7045.5) translate(43.95 17.1)"/><use xlink:href="#ad" transform="matrix(1,0,0,1,-2895,-7045.5) translate(120.9 17.1)"/><use xlink:href="#J" transform="matrix(1,0,0,1,-2895,-7013.5) translate(0 17.1)"/><use xlink:href="#K" transform="matrix(1,0,0,1,-2895,-7013.5) translate(43.95 17.1)"/><use xlink:href="#ae" transform="matrix(1,0,0,1,-2895,-7013.5) translate(120.9 17.1)"/><use xlink:href="#J" transform="matrix(1,0,0,1,-2895,-6981.5) translate(0 17.1)"/><use xlink:href="#K" transform="matrix(1,0,0,1,-2895,-6981.5) translate(43.95 17.1)"/><use xlink:href="#af" transform="matrix(1,0,0,1,-2895,-6981.5) translate(120.9 17.1)"/><use xlink:href="#J" transform="matrix(1,0,0,1,-2895,-6949.5) translate(0 17.1)"/><use xlink:href="#K" transform="matrix(1,0,0,1,-2895,-6949.5) translate(43.95 17.1)"/><use xlink:href="#ag" transform="matrix(1,0,0,1,-2895,-6949.5) translate(120.9 17.1)"/><use xlink:href="#J" transform="matrix(1,0,0,1,-2895,-6917.5) translate(0 17.1)"/><use xlink:href="#K" transform="matrix(1,0,0,1,-2895,-6917.5) translate(43.95 17.1)"/><use xlink:href="#ah" transform="matrix(1,0,0,1,-2895,-6917.5) translate(120.9 17.1)"/><use xlink:href="#J" transform="matrix(1,0,0,1,-2895,-6885.5) translate(0 17.1)"/><use xlink:href="#K" transform="matrix(1,0,0,1,-2895,-6885.5) translate(43.95 17.1)"/><use xlink:href="#ai" transform="matrix(1,0,0,1,-2895,-6885.5) translate(120.9 17.1)"/><use xlink:href="#J" transform="matrix(1,0,0,1,-2895,-6853.5) translate(0 17.1)"/><use xlink:href="#K" transform="matrix(1,0,0,1,-2895,-6853.5) translate(43.95 17.1)"/><use xlink:href="#aj" transform="matrix(1,0,0,1,-2895,-6853.5) translate(120.9 17.1)"/><use xlink:href="#J" transform="matrix(1,0,0,1,-2895,-6821.5) translate(0 17.1)"/><use xlink:href="#K" transform="matrix(1,0,0,1,-2895,-6821.5) translate(43.95 17.1)"/><use xlink:href="#ak" transform="matrix(1,0,0,1,-2895,-6821.5) translate(120.9 17.1)"/><use xlink:href="#J" transform="matrix(1,0,0,1,-2895,-6789.5) translate(0 17.1)"/><use xlink:href="#K" transform="matrix(1,0,0,1,-2895,-6789.5) translate(43.95 17.1)"/><use xlink:href="#al" transform="matrix(1,0,0,1,-2895,-6789.5) translate(120.9 17.1)"/><use xlink:href="#J" transform="matrix(1,0,0,1,-2895,-6757.5) translate(0 17.1)"/><use xlink:href="#K" transform="matrix(1,0,0,1,-2895,-6757.5) translate(43.95 17.1)"/><use xlink:href="#am" transform="matrix(1,0,0,1,-2895,-6757.5) translate(120.9 17.1)"/><use xlink:href="#J" transform="matrix(1,0,0,1,-2895,-6725.5) translate(0 17.1)"/><use xlink:href="#K" transform="matrix(1,0,0,1,-2895,-6725.5) translate(43.95 17.1)"/><use xlink:href="#an" transform="matrix(1,0,0,1,-2895,-6725.5) translate(120.9 17.1)"/><use xlink:href="#J" transform="matrix(1,0,0,1,-2895,-6693.5) translate(0 17.1)"/><use xlink:href="#K" transform="matrix(1,0,0,1,-2895,-6693.5) translate(43.95 17.1)"/><use xlink:href="#ao" transform="matrix(1,0,0,1,-2895,-6693.5) translate(120.9 17.1)"/><use xlink:href="#J" transform="matrix(1,0,0,1,-2895,-6661.5) translate(0 17.1)"/><use xlink:href="#K" transform="matrix(1,0,0,1,-2895,-6661.5) translate(43.95 17.1)"/><use xlink:href="#ap" transform="matrix(1,0,0,1,-2895,-6661.5) translate(120.9 17.1)"/><use xlink:href="#J" transform="matrix(1,0,0,1,-2895,-6629.5) translate(0 17.1)"/><use xlink:href="#K" transform="matrix(1,0,0,1,-2895,-6629.5) translate(43.95 17.1)"/><use xlink:href="#aq" transform="matrix(1,0,0,1,-2895,-6629.5) translate(120.9 17.1)"/><use xlink:href="#J" transform="matrix(1,0,0,1,-2895,-6597.5) translate(0 17.1)"/><use xlink:href="#K" transform="matrix(1,0,0,1,-2895,-6597.5) translate(43.95 17.1)"/><use xlink:href="#ar" transform="matrix(1,0,0,1,-2895,-6597.5) translate(120.9 17.1)"/><g><use xlink:href="#J" transform="matrix(1,0,0,1,-2895,-6565.5) translate(0 17.1)"/><use xlink:href="#K" transform="matrix(1,0,0,1,-2895,-6565.5) translate(43.95 17.1)"/><use xlink:href="#as" transform="matrix(1,0,0,1,-2895,-6565.5) translate(120.9 17.1)"/></g><g><use xlink:href="#J" transform="matrix(1,0,0,1,-2895,-6533.5) translate(0 17.1)"/><use xlink:href="#K" transform="matrix(1,0,0,1,-2895,-6533.5) translate(43.95 17.1)"/><use xlink:href="#at" transform="matrix(1,0,0,1,-2895,-6533.5) translate(120.9 17.1)"/></g><g><use xlink:href="#J" transform="matrix(1,0,0,1,-2895,-6501.5) translate(0 17.1)"/><use xlink:href="#K" transform="matrix(1,0,0,1,-2895,-6501.5) translate(43.95 17.1)"/><use xlink:href="#au" transform="matrix(1,0,0,1,-2895,-6501.5) translate(120.9 17.1)"/></g><g><use xlink:href="#J" transform="matrix(1,0,0,1,-2895,-6469.5) translate(0 17.1)"/><use xlink:href="#K" transform="matrix(1,0,0,1,-2895,-6469.5) translate(43.95 17.1)"/><use xlink:href="#av" transform="matrix(1,0,0,1,-2895,-6469.5) translate(120.9 17.1)"/></g><g><use xlink:href="#J" transform="matrix(1,0,0,1,-2895,-6437.5) translate(0 17.1)"/><use xlink:href="#aw" transform="matrix(1,0,0,1,-2895,-6437.5) translate(43.95 17.1)"/><use xlink:href="#ax" transform="matrix(1,0,0,1,-2895,-6437.5) translate(128.8 17.1)"/><use xlink:href="#ay" transform="matrix(1,0,0,1,-2895,-6437.5) translate(218.70000000000002 17.1)"/></g><g><use xlink:href="#J" transform="matrix(1,0,0,1,-2895,-6405.5) translate(0 17.1)"/><use xlink:href="#az" transform="matrix(1,0,0,1,-2895,-6405.5) translate(43.95 17.1)"/><use xlink:href="#aA" transform="matrix(1,0,0,1,-2895,-6405.5) translate(115.9 17.1)"/><use xlink:href="#ay" transform="matrix(1,0,0,1,-2895,-6405.5) translate(187.75 17.1)"/></g><g><use xlink:href="#J" transform="matrix(1,0,0,1,-2895,-6373.5) translate(0 17.1)"/><use xlink:href="#aB" transform="matrix(1,0,0,1,-2895,-6373.5) translate(43.95 17.1)"/><use xlink:href="#ay" transform="matrix(1,0,0,1,-2895,-6373.5) translate(151.75 17.1)"/></g><g><use xlink:href="#J" transform="matrix(1,0,0,1,-2895,-6341.5) translate(0 17.1)"/><use xlink:href="#aC" transform="matrix(1,0,0,1,-2895,-6341.5) translate(43.95 17.1)"/><use xlink:href="#aA" transform="matrix(1,0,0,1,-2895,-6341.5) translate(86.9 17.1)"/><use xlink:href="#ay" transform="matrix(1,0,0,1,-2895,-6341.5) translate(158.75 17.1)"/></g><g><use xlink:href="#J" transform="matrix(1,0,0,1,-2895,-6309.5) translate(0 17.1)"/><use xlink:href="#aD" transform="matrix(1,0,0,1,-2895,-6309.5) translate(43.95 17.1)"/><use xlink:href="#ay" transform="matrix(1,0,0,1,-2895,-6309.5) translate(122.80000000000001 17.1)"/></g><g><use xlink:href="#J" transform="matrix(1,0,0,1,-2895,-6277.5) translate(0 17.1)"/><use xlink:href="#aE" transform="matrix(1,0,0,1,-2895,-6277.5) translate(43.95 17.1)"/><use xlink:href="#aF" transform="matrix(1,0,0,1,-2895,-6277.5) translate(86.85000000000001 17.1)"/><use xlink:href="#aG" transform="matrix(1,0,0,1,-2895,-6277.5) translate(173.25 17.1)"/></g><g><use xlink:href="#J" transform="matrix(1,0,0,1,-2895,-6245.5) translate(0 17.1)"/><use xlink:href="#aH" transform="matrix(1,0,0,1,-2895,-6245.5) translate(43.95 17.1)"/><use xlink:href="#aG" transform="matrix(1,0,0,1,-2895,-6245.5) translate(102.9 17.1)"/></g><g><use xlink:href="#aI" transform="matrix(1,0,0,1,-2895,-6213.5) translate(0 17.1)"/></g><path d="M-3099.05-8936h54.03a5 5 0 0 1 5 5v1094a5 5 0 0 0 5 5h35.02" stroke="#000" stroke-width="2" fill="none"/><path d="M-3099.05-8926v-20M-3119.05-8936h20" stroke="#000" stroke-width="2" fill="#fff"/><path d="M-2961.44-7822l-20-10 20-10" stroke="#000" stroke-width="2" fill="#fff" fill-opacity="0"/><path d="M-2961.44-7832h-20M-2981.44-7832c0 5.52-4.48 10-10 10-5.53 0-10-4.48-10-10s4.47-10 10-10c5.52 0 10 4.48 10 10" stroke="#000" stroke-width="2" fill="#fff"/><path d="M-3760-9387a5 5 0 0 1 5-5h1430a5 5 0 0 1 5 5v3318a5 5 0 0 1-5 5h-1430a5 5 0 0 1-5-5z" stroke="#0c7cba" stroke-width="2" fill-opacity="0"/><path d="M-3600-8987a5 5 0 0 1 5-5h470a5 5 0 0 1 5 5v222a5 5 0 0 1-5 5h-470a5 5 0 0 1-5-5z" fill="#fff"/><path d="M-3600-8952v-35a5 5 0 0 1 5-5h470a5 5 0 0 1 5 5v35" fill="#c7e8ac"/><path d="M-3600-8987a5 5 0 0 1 5-5h470a5 5 0 0 1 5 5v222a5 5 0 0 1-5 5h-470a5 5 0 0 1-5-5zM-3600-8952h480M-3540-8952v192" stroke="#000" stroke-width="2" fill="none"/><g><use xlink:href="#aJ" transform="matrix(1,0,0,1,-3590,-8992) translate(143.67499999999998 23.6)"/><use xlink:href="#aK" transform="matrix(1,0,0,1,-3590,-8992) translate(235.425 23.6)"/></g><g><use xlink:href="#f" transform="matrix(1,0,0,1,-3595,-8949.5) translate(13 17.1)"/></g><g><use xlink:href="#aJ" transform="matrix(1,0,0,1,-3535,-8949.5) translate(0 17.1)"/><use xlink:href="#aL" transform="matrix(1,0,0,1,-3535,-8949.5) translate(91.75000000000001 17.1)"/><use xlink:href="#aM" transform="matrix(1,0,0,1,-3535,-8949.5) translate(177.65000000000003 17.1)"/></g><g><use xlink:href="#c" transform="matrix(1,0,0,1,-3595,-8917.5) translate(-0.9750000000000014 17.1)"/></g><g><use xlink:href="#d" transform="matrix(1,0,0,1,-3535,-8917.5) translate(0 17.1)"/><use xlink:href="#e" transform="matrix(1,0,0,1,-3535,-8917.5) translate(115.75000000000001 17.1)"/></g><g><use xlink:href="#i" transform="matrix(1,0,0,1,-3595,-8885.5) translate(13.524999999999999 17.1)"/></g><g><use xlink:href="#aN" transform="matrix(1,0,0,1,-3535,-8885.5) translate(0 17.1)"/><use xlink:href="#l" transform="matrix(1,0,0,1,-3535,-8885.5) translate(69.95 17.1)"/></g><g><use xlink:href="#j" transform="matrix(1,0,0,1,-3535,-8853.5) translate(0 17.1)"/><use xlink:href="#k" transform="matrix(1,0,0,1,-3535,-8853.5) translate(83.80000000000001 17.1)"/><use xlink:href="#aO" transform="matrix(1,0,0,1,-3535,-8853.5) translate(163.75 17.1)"/></g><g><use xlink:href="#j" transform="matrix(1,0,0,1,-3535,-8821.5) translate(0 17.1)"/><use xlink:href="#k" transform="matrix(1,0,0,1,-3535,-8821.5) translate(83.80000000000001 17.1)"/><use xlink:href="#aP" transform="matrix(1,0,0,1,-3535,-8821.5) translate(163.75 17.1)"/></g><g><use xlink:href="#D" transform="matrix(1,0,0,1,-3535,-8789.5) translate(0 17.1)"/></g><path d="M-3760-9467a5 5 0 0 1 5-5h1446a5 5 0 0 1 5 5v54a5 5 0 0 1-5 5h-1446a5 5 0 0 1-5-5z" stroke="#000" stroke-opacity="0" stroke-width="2" fill="#fff" fill-opacity="0"/><g><use xlink:href="#aQ" transform="matrix(1,0,0,1,-3740,-9472) translate(0 39.11111111111111)"/><use xlink:href="#aR" transform="matrix(1,0,0,1,-3740,-9472) translate(114.27160493827157 39.11111111111111)"/><use xlink:href="#aS" transform="matrix(1,0,0,1,-3740,-9472) translate(202.96296296296288 39.11111111111111)"/><use xlink:href="#aT" transform="matrix(1,0,0,1,-3740,-9472) translate(281.9753086419752 39.11111111111111)"/><use xlink:href="#aU" transform="matrix(1,0,0,1,-3740,-9472) translate(463.20987654320965 39.11111111111111)"/><use xlink:href="#aV" transform="matrix(1,0,0,1,-3740,-9472) translate(632.8888888888886 39.11111111111111)"/><use xlink:href="#aW" transform="matrix(1,0,0,1,-3740,-9472) translate(719.6049382716046 39.11111111111111)"/></g><path d="M-2832-6043a5 5 0 0 1 5-5h502a5 5 0 0 1 5 5v38a5 5 0 0 1-5 5h-502a5 5 0 0 1-5-5z" stroke="#000" stroke-opacity="0" stroke-width="2" fill="#fff" fill-opacity="0"/><g><use xlink:href="#aX" transform="matrix(1,0,0,1,-2812,-6048) translate(227.2 27.6)"/><use xlink:href="#aY" transform="matrix(1,0,0,1,-2812,-6048) translate(288.1 27.6)"/><use xlink:href="#aZ" transform="matrix(1,0,0,1,-2812,-6048) translate(353 27.6)"/><use xlink:href="#ba" transform="matrix(1,0,0,1,-2812,-6048) translate(392 27.6)"/></g><path d="M-3600-6748h492v54h-492z" fill="#fff"/><path d="M-3600-6694h127v60h-127z" fill="#b2d6ef"/><path d="M-3473-6694h365v60h-365z" fill="#fff"/><path d="M-3600-6634h127v60h-127z" fill="#c7e8ac"/><path d="M-3473-6634h365v60h-365zM-3600-6574h127v57h-127zM-3473-6574h365v57h-365zM-3600-6517h127v54h-127zM-3473-6517h365v54h-365zM-3600-6463h127v57h-127zM-3473-6463h365v57h-365zM-3600-6406h127v57h-127zM-3473-6406h365v57h-365zM-3600-6349h127v63h-127zM-3473-6349h365v63h-365zM-3600-6286h127v102h-127zM-3473-6286h365v102h-365z" fill="#fff"/><path d="M-3600-6748v54M-3108-6748v54" stroke="#0c7cba" stroke-width="2" fill="none"/><path d="M-3600-6694v60M-3473-6694v60" stroke="#b2d6ef" stroke-width="2" fill="none"/><path d="M-3108-6694v60M-3600-6634v60M-3473-6634v60M-3108-6634v60M-3600-6574v57M-3473-6574v57M-3108-6574v57M-3600-6517v54M-3473-6517v54M-3108-6517v54M-3600-6463v57M-3473-6463v57M-3108-6463v57M-3600-6406v57M-3473-6406v57M-3108-6406v57M-3600-6349v63M-3473-6349v63M-3108-6349v63M-3600-6286v102M-3473-6286v102M-3108-6286v102M-3600-6748h492" stroke="#0c7cba" stroke-width="2" fill="none"/><path d="M-3600-6694h127" stroke="#b2d6ef" stroke-width="2" fill="none"/><path d="M-3473-6694h365" stroke="#0c7cba" stroke-width="2" fill="none"/><path d="M-3600-6634h127" stroke="#b2d6ef" stroke-width="2" fill="none"/><path d="M-3473-6634h365M-3600-6574h127M-3473-6574h365M-3600-6517h127M-3473-6517h365M-3600-6463h127M-3473-6463h365M-3600-6406h127M-3473-6406h365M-3600-6349h127M-3473-6349h365M-3600-6286h127M-3600-6184h127M-3473-6286h365M-3473-6184h365" stroke="#0c7cba" stroke-width="2" fill="none"/><g><use xlink:href="#bb" transform="matrix(1,0,0,1,-3595,-6743) translate(220.6604938271605 26.444444444444443)"/></g><g><use xlink:href="#bc" transform="matrix(1,0,0,1,-3468,-6689) translate(0 28.6)"/><use xlink:href="#bd" transform="matrix(1,0,0,1,-3468,-6689) translate(40.900000000000006 28.6)"/><use xlink:href="#be" transform="matrix(1,0,0,1,-3468,-6689) translate(131.75 28.6)"/><use xlink:href="#bf" transform="matrix(1,0,0,1,-3468,-6689) translate(150.7 28.6)"/><use xlink:href="#bg" transform="matrix(1,0,0,1,-3468,-6689) translate(215.6 28.6)"/><use xlink:href="#bh" transform="matrix(1,0,0,1,-3468,-6689) translate(230.6 28.6)"/></g><g><use xlink:href="#bi" transform="matrix(1,0,0,1,-3468,-6629) translate(0 28.6)"/><use xlink:href="#bj" transform="matrix(1,0,0,1,-3468,-6629) translate(40.900000000000006 28.6)"/><use xlink:href="#bk" transform="matrix(1,0,0,1,-3468,-6629) translate(131.75 28.6)"/><use xlink:href="#bl" transform="matrix(1,0,0,1,-3468,-6629) translate(150.7 28.6)"/><use xlink:href="#bm" transform="matrix(1,0,0,1,-3468,-6629) translate(215.6 28.6)"/><use xlink:href="#bn" transform="matrix(1,0,0,1,-3468,-6629) translate(230.6 28.6)"/></g><g><use xlink:href="#bo" transform="matrix(1,0,0,1,-3595,-6569) translate(46.5 27.1)"/></g><g><use xlink:href="#bp" transform="matrix(1,0,0,1,-3468,-6569) translate(0 27.1)"/><use xlink:href="#bq" transform="matrix(1,0,0,1,-3468,-6569) translate(66.80000000000001 27.1)"/></g><g><use xlink:href="#br" transform="matrix(1,0,0,1,-3595,-6512) translate(47.025 25.6)"/></g><g><use xlink:href="#bs" transform="matrix(1,0,0,1,-3468,-6512) translate(0 25.6)"/><use xlink:href="#bq" transform="matrix(1,0,0,1,-3468,-6512) translate(65.85000000000001 25.6)"/></g><g><use xlink:href="#bt" transform="matrix(1,0,0,1,-3468,-6458) translate(0 27.1)"/><use xlink:href="#bu" transform="matrix(1,0,0,1,-3468,-6458) translate(39 27.1)"/><use xlink:href="#bv" transform="matrix(1,0,0,1,-3468,-6458) translate(59 27.1)"/><use xlink:href="#bw" transform="matrix(1,0,0,1,-3468,-6458) translate(98.95 27.1)"/><use xlink:href="#bx" transform="matrix(1,0,0,1,-3468,-6458) translate(119.9 27.1)"/></g><g><use xlink:href="#bt" transform="matrix(1,0,0,1,-3468,-6401) translate(0 27.1)"/><use xlink:href="#bu" transform="matrix(1,0,0,1,-3468,-6401) translate(39 27.1)"/><use xlink:href="#bv" transform="matrix(1,0,0,1,-3468,-6401) translate(59 27.1)"/><use xlink:href="#bu" transform="matrix(1,0,0,1,-3468,-6401) translate(98.95 27.1)"/><use xlink:href="#by" transform="matrix(1,0,0,1,-3468,-6401) translate(118.95 27.1)"/></g><g><use xlink:href="#bt" transform="matrix(1,0,0,1,-3468,-6344) translate(0 30.1)"/><use xlink:href="#bu" transform="matrix(1,0,0,1,-3468,-6344) translate(39 30.1)"/><use xlink:href="#bz" transform="matrix(1,0,0,1,-3468,-6344) translate(59 30.1)"/><use xlink:href="#bw" transform="matrix(1,0,0,1,-3468,-6344) translate(94 30.1)"/><use xlink:href="#by" transform="matrix(1,0,0,1,-3468,-6344) translate(114.95 30.1)"/></g><g><use xlink:href="#bA" transform="matrix(1,0,0,1,-3595,-6281) translate(18.025 49.6)"/><use xlink:href="#bB" transform="matrix(1,0,0,1,-3595,-6281) translate(54.025 49.6)"/></g><g><use xlink:href="#bC" transform="matrix(1,0,0,1,-3468,-6281) translate(0 28)"/><use xlink:href="#bD" transform="matrix(1,0,0,1,-3468,-6281) translate(43.95 28)"/><use xlink:href="#bE" transform="matrix(1,0,0,1,-3468,-6281) translate(96.9 28)"/><use xlink:href="#bF" transform="matrix(1,0,0,1,-3468,-6281) translate(140.9 28)"/><use xlink:href="#bG" transform="matrix(1,0,0,1,-3468,-6281) translate(155.9 28)"/><use xlink:href="#bH" transform="matrix(1,0,0,1,-3468,-6281) translate(222.70000000000002 28)"/><use xlink:href="#bI" transform="matrix(1,0,0,1,-3468,-6281) translate(260.6 28)"/><use xlink:href="#bJ" transform="matrix(1,0,0,1,-3468,-6281) translate(0 49.6)"/><use xlink:href="#bK" transform="matrix(1,0,0,1,-3468,-6281) translate(36.65 49.6)"/><use xlink:href="#bL" transform="matrix(1,0,0,1,-3468,-6281) translate(89.5 49.6)"/><use xlink:href="#bM" transform="matrix(1,0,0,1,-3468,-6281) translate(181.3 49.6)"/><use xlink:href="#bN" transform="matrix(1,0,0,1,-3468,-6281) translate(211.3 49.6)"/><use xlink:href="#bO" transform="matrix(1,0,0,1,-3468,-6281) translate(276.1 49.6)"/><use xlink:href="#bP" transform="matrix(1,0,0,1,-3468,-6281) translate(318.1 49.6)"/><use xlink:href="#bQ" transform="matrix(1,0,0,1,-3468,-6281) translate(0 71.2)"/><use xlink:href="#bR" transform="matrix(1,0,0,1,-3468,-6281) translate(56.95 71.2)"/></g><path d="M-3553.33-6433.67h17.75a1.42 1.42 0 0 0 1.4-1.4v-1.26a.17.17 0 0 1 .18-.17" stroke="#0c7cba" stroke-width="2" fill="none"/><path d="M-3553.33-6423.67v-20M-3573.33-6433.67h20M-3505-6446.5v20M-3495-6436.5h-20M-3515-6436.5c0 5.52-4.48 10-10 10s-10-4.48-10-10 4.48-10 10-10 10 4.48 10 10" stroke="#0c7cba" stroke-width="2" fill="#fff"/><path d="M-3552-6376.33h19.83a.17.17 0 0 0 .17-.17.17.17 0 0 1 .17-.17h.83" stroke="#0c7cba" stroke-width="2" fill="none"/><path d="M-3552-6366.33v-20M-3572-6376.33h20" stroke="#0c7cba" stroke-width="2" fill="#fff"/><path d="M-3492.45-6366.67l-20-10 20-10" stroke="#0c7cba" stroke-width="2" fill="#fff" fill-opacity="0"/><path d="M-3492.45-6376.67h-20M-3512.45-6376.67c0 5.53-4.47 10-10 10-5.52 0-10-4.47-10-10 0-5.52 4.48-10 10-10 5.53 0 10 4.48 10 10" stroke="#0c7cba" stroke-width="2" fill="#fff"/><path d="M-3545.33-6316.33h15.54a.04.04 0 0 0 .05-.05.04.04 0 0 1 .04-.04h15.53" stroke="#0c7cba" stroke-width="2" fill="none"/><path d="M-3545.33-6306.33v-20M-3565.33-6316.33h20" stroke="#0c7cba" stroke-width="2" fill="#fff"/><path d="M-3494.6-6306.42l-20-10 20-10" stroke="#0c7cba" stroke-width="2" fill="#fff" fill-opacity="0"/><path d="M-3494.6-6316.42h-20M-3514.6-6326.42v20" stroke="#0c7cba" stroke-width="2" fill="#fff"/><defs><path d="M195 0l-88-114-31 24V0H24v-248h52v113l112-113h60L142-143 257 0h-62" id="bS"/><path d="M23 0v-37h61v-169l-59 37v-38l62-41h46v211h57V0H23" id="bT"/><path d="M101-251c68 0 84 54 84 127C185-50 166 4 99 4S15-52 14-124c-1-75 17-127 87-127zm-1 216c37-5 36-46 36-89s4-89-36-89c-39 0-36 45-36 89 0 43-3 85 36 89" id="bU"/><path d="M125-100v72H85v-72H15v-39h70v-72h40v72h71v39h-71" id="bV"/><g id="a"><use transform="matrix(0.05,0,0,0.05,0,0)" xlink:href="#bS"/><use transform="matrix(0.05,0,0,0.05,12.950000000000001,0)" xlink:href="#bT"/><use transform="matrix(0.05,0,0,0.05,22.950000000000003,0)" xlink:href="#bU"/><use transform="matrix(0.05,0,0,0.05,32.95,0)" xlink:href="#bV"/></g><path d="M230 0l2-204L168 0h-37L68-204 70 0H24v-248h70l56 185 57-185h69V0h-46" id="bW"/><path d="M185-48c-13 30-37 53-82 52C43 2 14-33 14-96s30-98 90-98c62 0 83 45 84 108H66c0 31 8 55 39 56 18 0 30-7 34-22zm-45-69c5-46-57-63-70-21-2 6-4 13-4 21h74" id="bX"/><path d="M133-34C117-15 103 5 69 4 32 3 11-16 11-54c-1-60 55-63 116-61 1-26-3-47-28-47-18 1-26 9-28 27l-52-2c7-38 36-58 82-57s74 22 75 68l1 82c-1 14 12 18 25 15v27c-30 8-71 5-69-32zm-48 3c29 0 43-24 42-57-32 0-66-3-65 30 0 17 8 27 23 27" id="bY"/><path d="M137-138c1-29-70-34-71-4 15 46 118 7 119 86 1 83-164 76-172 9l43-7c4 19 20 25 44 25 33 8 57-30 24-41C81-84 22-81 20-136c-2-80 154-74 161-7" id="bZ"/><path d="M85 4C-2 5 27-109 22-190h50c7 57-23 150 33 157 60-5 35-97 40-157h50l1 190h-47c-2-12 1-28-3-38-12 25-28 42-61 42" id="ca"/><path d="M135-150c-39-12-60 13-60 57V0H25l-1-190h47c2 13-1 29 3 40 6-28 27-53 61-41v41" id="cb"/><g id="b"><use transform="matrix(0.05,0,0,0.05,0,0)" xlink:href="#bW"/><use transform="matrix(0.05,0,0,0.05,14.950000000000001,0)" xlink:href="#bX"/><use transform="matrix(0.05,0,0,0.05,24.950000000000003,0)" xlink:href="#bY"/><use transform="matrix(0.05,0,0,0.05,34.95,0)" xlink:href="#bZ"/><use transform="matrix(0.05,0,0,0.05,44.95,0)" xlink:href="#ca"/><use transform="matrix(0.05,0,0,0.05,55.900000000000006,0)" xlink:href="#cb"/><use transform="matrix(0.05,0,0,0.05,62.900000000000006,0)" xlink:href="#bX"/></g><path d="M63-220v92h138v28H63V0H30v-248h175v28H63" id="cc"/><path d="M194 0L95-120 63-95V0H30v-248h33v124l119-124h40L117-140 236 0h-42" id="cd"/><path d="M0 4l72-265h28L28 4H0" id="ce"/><path d="M30-248c87 1 191-15 191 75 0 78-77 80-158 76V0H30v-248zm33 125c57 0 124 11 124-50 0-59-68-47-124-48v98" id="cf"/><g id="c"><use transform="matrix(0.05,0,0,0.05,0,0)" xlink:href="#cc"/><use transform="matrix(0.05,0,0,0.05,10.950000000000001,0)" xlink:href="#cd"/><use transform="matrix(0.05,0,0,0.05,22.950000000000003,0)" xlink:href="#ce"/><use transform="matrix(0.05,0,0,0.05,27.950000000000003,0)" xlink:href="#cf"/><use transform="matrix(0.05,0,0,0.05,39.95,0)" xlink:href="#cd"/></g><path d="M140-251c80 0 125 45 125 126S219 4 139 4C58 4 15-44 15-125s44-126 125-126zm-1 214c52 0 73-35 73-88 0-50-21-86-72-86-52 0-73 35-73 86s22 88 72 88" id="cg"/><path d="M195-6C206 82 75 100 31 46c-4-6-6-13-8-21l49-6c3 16 16 24 34 25 40 0 42-37 40-79-11 22-30 35-61 35-53 0-70-43-70-97 0-56 18-96 73-97 30 0 46 14 59 34l2-30h47zm-90-29c32 0 41-27 41-63 0-35-9-62-40-62-32 0-39 29-40 63 0 36 9 62 39 62" id="ch"/><path d="M135-194c87-1 58 113 63 194h-50c-7-57 23-157-34-157-59 0-34 97-39 157H25l-1-190h47c2 12-1 28 3 38 12-26 28-41 61-42" id="ci"/><path d="M25-224v-37h50v37H25zM25 0v-190h50V0H25" id="cj"/><path d="M115-3C79 11 28 4 28-45v-112H4v-33h27l15-45h31v45h36v33H77v99c-1 23 16 31 38 25v30" id="ck"/><path d="M110-194c64 0 96 36 96 99 0 64-35 99-97 99-61 0-95-36-95-99 0-62 34-99 96-99zm-1 164c35 0 45-28 45-65 0-40-10-65-43-65-34 0-45 26-45 65 0 36 10 65 43 65" id="cl"/><g id="d"><use transform="matrix(0.05,0,0,0.05,0,0)" xlink:href="#cg"/><use transform="matrix(0.05,0,0,0.05,14,0)" xlink:href="#cb"/><use transform="matrix(0.05,0,0,0.05,21,0)" xlink:href="#ch"/><use transform="matrix(0.05,0,0,0.05,31.950000000000003,0)" xlink:href="#bY"/><use transform="matrix(0.05,0,0,0.05,41.95,0)" xlink:href="#ci"/><use transform="matrix(0.05,0,0,0.05,52.900000000000006,0)" xlink:href="#cj"/><use transform="matrix(0.05,0,0,0.05,57.900000000000006,0)" xlink:href="#bZ"/><use transform="matrix(0.05,0,0,0.05,67.9,0)" xlink:href="#bY"/><use transform="matrix(0.05,0,0,0.05,77.9,0)" xlink:href="#ck"/><use transform="matrix(0.05,0,0,0.05,83.85000000000001,0)" xlink:href="#cj"/><use transform="matrix(0.05,0,0,0.05,88.85000000000001,0)" xlink:href="#cl"/><use transform="matrix(0.05,0,0,0.05,99.80000000000001,0)" xlink:href="#ci"/></g><path d="M24-248c93 1 206-16 204 79-1 75-69 88-152 82V0H24v-248zm52 121c47 0 100 7 100-41 0-47-54-39-100-39v80" id="cm"/><path d="M114-157C55-157 80-60 75 0H25v-261h50l-1 109c12-26 28-41 61-42 86-1 58 113 63 194h-50c-7-57 23-157-34-157" id="cn"/><g id="e"><use transform="matrix(0.05,0,0,0.05,0,0)" xlink:href="#cm"/><use transform="matrix(0.05,0,0,0.05,12,0)" xlink:href="#bY"/><use transform="matrix(0.05,0,0,0.05,22,0)" xlink:href="#ck"/><use transform="matrix(0.05,0,0,0.05,27.950000000000003,0)" xlink:href="#cn"/></g><g id="f"><use transform="matrix(0.05,0,0,0.05,0,0)" xlink:href="#cf"/><use transform="matrix(0.05,0,0,0.05,12,0)" xlink:href="#cd"/></g><g id="g"><use transform="matrix(0.05,0,0,0.05,0,0)" xlink:href="#bW"/><use transform="matrix(0.05,0,0,0.05,14.950000000000001,0)" xlink:href="#bX"/><use transform="matrix(0.05,0,0,0.05,24.950000000000003,0)" xlink:href="#bY"/><use transform="matrix(0.05,0,0,0.05,34.95,0)" xlink:href="#bZ"/><use transform="matrix(0.05,0,0,0.05,44.95,0)" xlink:href="#ca"/><use transform="matrix(0.05,0,0,0.05,55.900000000000006,0)" xlink:href="#cb"/><use transform="matrix(0.05,0,0,0.05,62.900000000000006,0)" xlink:href="#bX"/></g><path d="M123 10C108 53 80 86 19 72V37c35 8 53-11 59-39L3-190h52l48 148c12-52 28-100 44-148h51" id="co"/><g id="h"><use transform="matrix(0.05,0,0,0.05,0,0)" xlink:href="#bS"/><use transform="matrix(0.05,0,0,0.05,12.950000000000001,0)" xlink:href="#bX"/><use transform="matrix(0.05,0,0,0.05,22.950000000000003,0)" xlink:href="#co"/></g><g id="i"><use transform="matrix(0.05,0,0,0.05,0,0)" xlink:href="#cc"/><use transform="matrix(0.05,0,0,0.05,10.950000000000001,0)" xlink:href="#cd"/></g><path d="M212-179c-10-28-35-45-73-45-59 0-87 40-87 99 0 60 29 101 89 101 43 0 62-24 78-52l27 14C228-24 195 4 139 4 59 4 22-46 18-125c-6-104 99-153 187-111 19 9 31 26 39 46" id="cp"/><path d="M100-194c62-1 85 37 85 99 1 63-27 99-86 99S16-35 15-95c0-66 28-99 85-99zM99-20c44 1 53-31 53-75 0-43-8-75-51-75s-53 32-53 75 10 74 51 75" id="cq"/><path d="M24 0v-261h32V0H24" id="cr"/><path d="M100-194c63 0 86 42 84 106H49c0 40 14 67 53 68 26 1 43-12 49-29l28 8c-11 28-37 45-77 45C44 4 14-33 15-96c1-61 26-98 85-98zm52 81c6-60-76-77-97-28-3 7-6 17-6 28h103" id="cs"/><path d="M96-169c-40 0-48 33-48 73s9 75 48 75c24 0 41-14 43-38l32 2c-6 37-31 61-74 61-59 0-76-41-82-99-10-93 101-131 147-64 4 7 5 14 7 22l-32 3c-4-21-16-35-41-35" id="ct"/><path d="M59-47c-2 24 18 29 38 22v24C64 9 27 4 27-40v-127H5v-23h24l9-43h21v43h35v23H59v120" id="cu"/><path d="M24-231v-30h32v30H24zM24 0v-190h32V0H24" id="cv"/><path d="M117-194c89-4 53 116 60 194h-32v-121c0-31-8-49-39-48C34-167 62-67 57 0H25l-1-190h30c1 10-1 24 2 32 11-22 29-35 61-36" id="cw"/><g id="j"><use transform="matrix(0.05,0,0,0.05,0,0)" xlink:href="#cp"/><use transform="matrix(0.05,0,0,0.05,12.950000000000001,0)" xlink:href="#cq"/><use transform="matrix(0.05,0,0,0.05,22.950000000000003,0)" xlink:href="#cr"/><use transform="matrix(0.05,0,0,0.05,26.900000000000002,0)" xlink:href="#cr"/><use transform="matrix(0.05,0,0,0.05,30.85,0)" xlink:href="#cs"/><use transform="matrix(0.05,0,0,0.05,40.85,0)" xlink:href="#ct"/><use transform="matrix(0.05,0,0,0.05,49.85,0)" xlink:href="#cu"/><use transform="matrix(0.05,0,0,0.05,54.85,0)" xlink:href="#cv"/><use transform="matrix(0.05,0,0,0.05,58.800000000000004,0)" xlink:href="#cq"/><use transform="matrix(0.05,0,0,0.05,68.80000000000001,0)" xlink:href="#cw"/></g><path d="M140-251c81 0 123 46 123 126C263-46 219 4 140 4 59 4 17-45 17-125s42-126 123-126zm0 227c63 0 89-41 89-101s-29-99-89-99c-61 0-89 39-89 99S79-25 140-24" id="cx"/><path d="M141-36C126-15 110 5 73 4 37 3 15-17 15-53c-1-64 63-63 125-63 3-35-9-54-41-54-24 1-41 7-42 31l-33-3c5-37 33-52 76-52 45 0 72 20 72 64v82c-1 20 7 32 28 27v20c-31 9-61-2-59-35zM48-53c0 20 12 33 32 33 41-3 63-29 60-74-43 2-92-5-92 41" id="cy"/><path d="M135-143c-3-34-86-38-87 0 15 53 115 12 119 90S17 21 10-45l28-5c4 36 97 45 98 0-10-56-113-15-118-90-4-57 82-63 122-42 12 7 21 19 24 35" id="cz"/><g id="k"><use transform="matrix(0.05,0,0,0.05,0,0)" xlink:href="#cx"/><use transform="matrix(0.05,0,0,0.05,14,0)" xlink:href="#ct"/><use transform="matrix(0.05,0,0,0.05,23,0)" xlink:href="#ct"/><use transform="matrix(0.05,0,0,0.05,32,0)" xlink:href="#cy"/><use transform="matrix(0.05,0,0,0.05,42,0)" xlink:href="#cz"/><use transform="matrix(0.05,0,0,0.05,51,0)" xlink:href="#cv"/><use transform="matrix(0.05,0,0,0.05,54.95,0)" xlink:href="#cq"/><use transform="matrix(0.05,0,0,0.05,64.95,0)" xlink:href="#cw"/></g><path d="M179-190L93 31C79 59 56 82 12 73V49c39 6 53-20 64-50L1-190h34L92-34l54-156h33" id="cA"/><g id="l"><use transform="matrix(0.05,0,0,0.05,0,0)" xlink:href="#cd"/><use transform="matrix(0.05,0,0,0.05,12,0)" xlink:href="#cs"/><use transform="matrix(0.05,0,0,0.05,22,0)" xlink:href="#cA"/></g><path d="M27 0v-27h64v-190l-56 39v-29l58-41h29v221h61V0H27" id="cB"/><path d="M101-251c68 0 85 55 85 127S166 4 100 4C33 4 14-52 14-124c0-73 17-127 87-127zm-1 229c47 0 54-49 54-102s-4-102-53-102c-51 0-55 48-55 102 0 53 5 102 54 102" id="cC"/><path d="M118-107v75H92v-75H18v-26h74v-75h26v75h74v26h-74" id="cD"/><g id="m"><use transform="matrix(0.05,0,0,0.05,0,0)" xlink:href="#cd"/><use transform="matrix(0.05,0,0,0.05,12,0)" xlink:href="#cB"/><use transform="matrix(0.05,0,0,0.05,22,0)" xlink:href="#cC"/><use transform="matrix(0.05,0,0,0.05,32,0)" xlink:href="#cD"/></g><path d="M140-251c81 0 123 46 123 126C263-53 228-8 163 1c7 30 30 48 69 40v23c-55 16-95-15-103-61C56-3 17-48 17-125c0-80 42-126 123-126zm0 227c63 0 89-41 89-101s-29-99-89-99c-61 0-89 39-89 99S79-25 140-24" id="cE"/><path d="M84 4C-5 8 30-112 23-190h32v120c0 31 7 50 39 49 72-2 45-101 50-169h31l1 190h-30c-1-10 1-25-2-33-11 22-28 36-60 37" id="cF"/><g id="n"><use transform="matrix(0.05,0,0,0.05,0,0)" xlink:href="#cE"/><use transform="matrix(0.05,0,0,0.05,14,0)" xlink:href="#cF"/><use transform="matrix(0.05,0,0,0.05,24,0)" xlink:href="#cs"/><use transform="matrix(0.05,0,0,0.05,34,0)" xlink:href="#cz"/><use transform="matrix(0.05,0,0,0.05,43,0)" xlink:href="#cu"/><use transform="matrix(0.05,0,0,0.05,48,0)" xlink:href="#cv"/><use transform="matrix(0.05,0,0,0.05,51.95,0)" xlink:href="#cq"/><use transform="matrix(0.05,0,0,0.05,61.95,0)" xlink:href="#cw"/></g><use transform="matrix(0.05,0,0,0.05,0,0)" xlink:href="#cB" id="o"/><path d="M101-251c82-7 93 87 43 132L82-64C71-53 59-42 53-27h129V0H18c2-99 128-94 128-182 0-28-16-43-45-43s-46 15-49 41l-32-3c6-41 34-60 81-64" id="cG"/><use transform="matrix(0.05,0,0,0.05,0,0)" xlink:href="#cG" id="p"/><path d="M126-127c33 6 58 20 58 59 0 88-139 92-164 29-3-8-5-16-6-25l32-3c6 27 21 44 54 44 32 0 52-15 52-46 0-38-36-46-79-43v-28c39 1 72-4 72-42 0-27-17-43-46-43-28 0-47 15-49 41l-32-3c6-42 35-63 81-64 48-1 79 21 79 65 0 36-21 52-52 59" id="cH"/><use transform="matrix(0.05,0,0,0.05,0,0)" xlink:href="#cH" id="q"/><path d="M155-56V0h-30v-56H8v-25l114-167h33v167h35v25h-35zm-30-156c-27 46-58 90-88 131h88v-131" id="cI"/><use transform="matrix(0.05,0,0,0.05,0,0)" xlink:href="#cI" id="r"/><path d="M54-142c48-35 137-8 131 61C196 18 31 33 14-55l32-4c7 23 22 37 52 37 35-1 51-22 54-58 4-55-73-65-99-34H22l8-134h141v27H59" id="cJ"/><use transform="matrix(0.05,0,0,0.05,0,0)" xlink:href="#cJ" id="s"/><path d="M110-160c48 1 74 30 74 79 0 53-28 85-80 85-65 0-83-55-86-122-5-90 50-162 133-122 14 7 22 21 27 39l-31 6c-5-40-67-38-82-6-9 19-15 44-15 74 11-20 30-34 60-33zm-7 138c34 0 49-23 49-58s-16-56-50-56c-29 0-50 16-49 49 1 36 15 65 50 65" id="cK"/><use transform="matrix(0.05,0,0,0.05,0,0)" xlink:href="#cK" id="t"/><path d="M64 0c3-98 48-159 88-221H18v-27h164v26C143-157 98-101 97 0H64" id="cL"/><use transform="matrix(0.05,0,0,0.05,0,0)" xlink:href="#cL" id="u"/><path d="M134-131c28 9 52 24 51 62-1 50-34 73-85 73S17-19 16-69c0-36 21-54 49-61-75-25-45-126 34-121 46 3 78 18 79 63 0 33-17 51-44 57zm-34-11c31 1 46-15 46-44 0-28-17-43-47-42-29 0-46 13-45 42 1 28 16 44 46 44zm1 122c35 0 51-18 51-52 0-30-18-46-53-46-33 0-51 17-51 47 0 34 19 51 53 51" id="cM"/><use transform="matrix(0.05,0,0,0.05,0,0)" xlink:href="#cM" id="v"/><path d="M99-251c64 0 84 50 84 122C183-37 130 33 47-8c-14-7-20-23-25-40l30-5c6 39 69 39 84 7 9-19 16-44 16-74-10 22-31 35-62 35-49 0-73-33-73-83 0-54 28-83 82-83zm-1 141c31-1 51-18 51-49 0-36-14-67-51-67-34 0-49 23-49 58 0 34 15 58 49 58" id="cN"/><use transform="matrix(0.05,0,0,0.05,0,0)" xlink:href="#cN" id="w"/><g id="x"><use transform="matrix(0.05,0,0,0.05,0,0)" xlink:href="#cB"/><use transform="matrix(0.05,0,0,0.05,10,0)" xlink:href="#cC"/></g><g id="y"><use transform="matrix(0.05,0,0,0.05,0,0)" xlink:href="#cB"/><use transform="matrix(0.05,0,0,0.05,8.65,0)" xlink:href="#cB"/></g><g id="z"><use transform="matrix(0.05,0,0,0.05,0,0)" xlink:href="#cB"/><use transform="matrix(0.05,0,0,0.05,10,0)" xlink:href="#cG"/></g><g id="A"><use transform="matrix(0.05,0,0,0.05,0,0)" xlink:href="#cB"/><use transform="matrix(0.05,0,0,0.05,10,0)" xlink:href="#cH"/></g><g id="B"><use transform="matrix(0.05,0,0,0.05,0,0)" xlink:href="#cB"/><use transform="matrix(0.05,0,0,0.05,10,0)" xlink:href="#cI"/></g><path d="M185-189c-5-48-123-54-124 2 14 75 158 14 163 119 3 78-121 87-175 55-17-10-28-26-33-46l33-7c5 56 141 63 141-1 0-78-155-14-162-118-5-82 145-84 179-34 5 7 8 16 11 25" id="cO"/><path d="M114-163C36-179 61-72 57 0H25l-1-190h30c1 12-1 29 2 39 6-27 23-49 58-41v29" id="cP"/><g id="C"><use transform="matrix(0.05,0,0,0.05,0,0)" xlink:href="#cO"/><use transform="matrix(0.05,0,0,0.05,12,0)" xlink:href="#ct"/><use transform="matrix(0.05,0,0,0.05,21,0)" xlink:href="#cq"/><use transform="matrix(0.05,0,0,0.05,31,0)" xlink:href="#cP"/><use transform="matrix(0.05,0,0,0.05,36.95,0)" xlink:href="#cs"/></g><path d="M127-220V0H93v-220H8v-28h204v28h-85" id="cQ"/><path d="M177-190C167-65 218 103 67 71c-23-6-38-20-44-43l32-5c15 47 100 32 89-28v-30C133-14 115 1 83 1 29 1 15-40 15-95c0-56 16-97 71-98 29-1 48 16 59 35 1-10 0-23 2-32h30zM94-22c36 0 50-32 50-73 0-42-14-75-50-75-39 0-46 34-46 75s6 73 46 73" id="cR"/><g id="D"><use transform="matrix(0.05,0,0,0.05,0,0)" xlink:href="#cQ"/><use transform="matrix(0.05,0,0,0.05,8.950000000000001,0)" xlink:href="#cy"/><use transform="matrix(0.05,0,0,0.05,18.950000000000003,0)" xlink:href="#cR"/><use transform="matrix(0.05,0,0,0.05,28.950000000000003,0)" xlink:href="#cz"/></g><path d="M139-81c0-46-55-55-73-27H18l9-140h149v37H72l-4 63c44-38 133-4 122 66C201 21 21 35 11-62l49-4c5 18 15 30 39 30 26 0 40-18 40-45" id="cS"/><g id="E"><use transform="matrix(0.05,0,0,0.05,0,0)" xlink:href="#bS"/><use transform="matrix(0.05,0,0,0.05,12.950000000000001,0)" xlink:href="#cS"/></g><g id="F"><use transform="matrix(0.05,0,0,0.05,0,0)" xlink:href="#cd"/><use transform="matrix(0.05,0,0,0.05,12,0)" xlink:href="#cJ"/></g><path d="M169-182c-1-43-94-46-97-3 18 66 151 10 154 114 3 95-165 93-204 36-6-8-10-19-12-30l50-8c3 46 112 56 116 5-17-69-150-10-154-114-4-87 153-88 188-35 5 8 8 18 10 28" id="cT"/><path d="M24-248c120-7 223 5 221 122C244-46 201 0 124 0H24v-248zM76-40c74 7 117-18 117-86 0-67-45-88-117-82v168" id="cU"/><path d="M140-251c80 0 125 45 125 126 0 70-33 111-92 124 6 28 34 38 68 31l-1 36C177 83 129 55 120 2 51-6 15-50 15-125c0-81 44-126 125-126zm-1 214c52 0 73-35 73-88 0-50-21-86-72-86-52 0-73 35-73 86s22 88 72 88" id="cV"/><g id="G"><use transform="matrix(0.05,0,0,0.05,0,0)" xlink:href="#cT"/><use transform="matrix(0.05,0,0,0.05,12,0)" xlink:href="#cU"/><use transform="matrix(0.05,0,0,0.05,24.950000000000003,0)" xlink:href="#cV"/></g><path d="M30-248c118-7 216 8 213 122C240-48 200 0 122 0H30v-248zM63-27c89 8 146-16 146-99s-60-101-146-95v194" id="cW"/><g id="H"><use transform="matrix(0.05,0,0,0.05,0,0)" xlink:href="#cO"/><use transform="matrix(0.05,0,0,0.05,12,0)" xlink:href="#cW"/><use transform="matrix(0.05,0,0,0.05,24.950000000000003,0)" xlink:href="#cE"/></g><path d="M137 0h-34L2-248h35l83 218 83-218h36" id="cX"/><g id="I"><use transform="matrix(0.05,0,0,0.05,0,0)" xlink:href="#cX"/><use transform="matrix(0.05,0,0,0.05,11,0)" xlink:href="#cs"/><use transform="matrix(0.05,0,0,0.05,21,0)" xlink:href="#cP"/><use transform="matrix(0.05,0,0,0.05,26.950000000000003,0)" xlink:href="#cz"/><use transform="matrix(0.05,0,0,0.05,35.95,0)" xlink:href="#cv"/><use transform="matrix(0.05,0,0,0.05,39.900000000000006,0)" xlink:href="#cq"/><use transform="matrix(0.05,0,0,0.05,49.900000000000006,0)" xlink:href="#cw"/></g><g id="J"><use transform="matrix(0.05,0,0,0.05,0,0)" xlink:href="#cO"/><use transform="matrix(0.05,0,0,0.05,12,0)" xlink:href="#cW"/><use transform="matrix(0.05,0,0,0.05,24.950000000000003,0)" xlink:href="#cE"/></g><g id="K"><use transform="matrix(0.05,0,0,0.05,0,0)" xlink:href="#cE"/><use transform="matrix(0.05,0,0,0.05,14,0)" xlink:href="#cF"/><use transform="matrix(0.05,0,0,0.05,24,0)" xlink:href="#cs"/><use transform="matrix(0.05,0,0,0.05,34,0)" xlink:href="#cz"/><use transform="matrix(0.05,0,0,0.05,43,0)" xlink:href="#cu"/><use transform="matrix(0.05,0,0,0.05,48,0)" xlink:href="#cv"/><use transform="matrix(0.05,0,0,0.05,51.95,0)" xlink:href="#cq"/><use transform="matrix(0.05,0,0,0.05,61.95,0)" xlink:href="#cw"/></g><use transform="matrix(0.05,0,0,0.05,0,0)" xlink:href="#cK" id="L"/><use transform="matrix(0.05,0,0,0.05,0,0)" xlink:href="#cL" id="M"/><use transform="matrix(0.05,0,0,0.05,0,0)" xlink:href="#cM" id="N"/><use transform="matrix(0.05,0,0,0.05,0,0)" xlink:href="#cN" id="O"/><g id="P"><use transform="matrix(0.05,0,0,0.05,0,0)" xlink:href="#cB"/><use transform="matrix(0.05,0,0,0.05,10,0)" xlink:href="#cC"/></g><g id="Q"><use transform="matrix(0.05,0,0,0.05,0,0)" xlink:href="#cB"/><use transform="matrix(0.05,0,0,0.05,8.65,0)" xlink:href="#cB"/></g><g id="R"><use transform="matrix(0.05,0,0,0.05,0,0)" xlink:href="#cB"/><use transform="matrix(0.05,0,0,0.05,10,0)" xlink:href="#cG"/></g><g id="S"><use transform="matrix(0.05,0,0,0.05,0,0)" xlink:href="#cB"/><use transform="matrix(0.05,0,0,0.05,10,0)" xlink:href="#cH"/></g><g id="T"><use transform="matrix(0.05,0,0,0.05,0,0)" xlink:href="#cB"/><use transform="matrix(0.05,0,0,0.05,10,0)" xlink:href="#cI"/></g><g id="U"><use transform="matrix(0.05,0,0,0.05,0,0)" xlink:href="#cB"/><use transform="matrix(0.05,0,0,0.05,10,0)" xlink:href="#cJ"/></g><g id="V"><use transform="matrix(0.05,0,0,0.05,0,0)" xlink:href="#cB"/><use transform="matrix(0.05,0,0,0.05,10,0)" xlink:href="#cK"/></g><g id="W"><use transform="matrix(0.05,0,0,0.05,0,0)" xlink:href="#cB"/><use transform="matrix(0.05,0,0,0.05,10,0)" xlink:href="#cL"/></g><g id="X"><use transform="matrix(0.05,0,0,0.05,0,0)" xlink:href="#cB"/><use transform="matrix(0.05,0,0,0.05,10,0)" xlink:href="#cM"/></g><g id="Y"><use transform="matrix(0.05,0,0,0.05,0,0)" xlink:href="#cB"/><use transform="matrix(0.05,0,0,0.05,10,0)" xlink:href="#cN"/></g><g id="Z"><use transform="matrix(0.05,0,0,0.05,0,0)" xlink:href="#cG"/><use transform="matrix(0.05,0,0,0.05,10,0)" xlink:href="#cC"/></g><g id="aa"><use transform="matrix(0.05,0,0,0.05,0,0)" xlink:href="#cG"/><use transform="matrix(0.05,0,0,0.05,10,0)" xlink:href="#cB"/></g><g id="ab"><use transform="matrix(0.05,0,0,0.05,0,0)" xlink:href="#cG"/><use transform="matrix(0.05,0,0,0.05,10,0)" xlink:href="#cG"/></g><g id="ac"><use transform="matrix(0.05,0,0,0.05,0,0)" xlink:href="#cG"/><use transform="matrix(0.05,0,0,0.05,10,0)" xlink:href="#cH"/></g><g id="ad"><use transform="matrix(0.05,0,0,0.05,0,0)" xlink:href="#cG"/><use transform="matrix(0.05,0,0,0.05,10,0)" xlink:href="#cI"/></g><g id="ae"><use transform="matrix(0.05,0,0,0.05,0,0)" xlink:href="#cG"/><use transform="matrix(0.05,0,0,0.05,10,0)" xlink:href="#cJ"/></g><g id="af"><use transform="matrix(0.05,0,0,0.05,0,0)" xlink:href="#cG"/><use transform="matrix(0.05,0,0,0.05,10,0)" xlink:href="#cK"/></g><g id="ag"><use transform="matrix(0.05,0,0,0.05,0,0)" xlink:href="#cG"/><use transform="matrix(0.05,0,0,0.05,10,0)" xlink:href="#cL"/></g><g id="ah"><use transform="matrix(0.05,0,0,0.05,0,0)" xlink:href="#cG"/><use transform="matrix(0.05,0,0,0.05,10,0)" xlink:href="#cM"/></g><g id="ai"><use transform="matrix(0.05,0,0,0.05,0,0)" xlink:href="#cG"/><use transform="matrix(0.05,0,0,0.05,10,0)" xlink:href="#cN"/></g><g id="aj"><use transform="matrix(0.05,0,0,0.05,0,0)" xlink:href="#cH"/><use transform="matrix(0.05,0,0,0.05,10,0)" xlink:href="#cC"/></g><g id="ak"><use transform="matrix(0.05,0,0,0.05,0,0)" xlink:href="#cH"/><use transform="matrix(0.05,0,0,0.05,10,0)" xlink:href="#cB"/></g><g id="al"><use transform="matrix(0.05,0,0,0.05,0,0)" xlink:href="#cH"/><use transform="matrix(0.05,0,0,0.05,10,0)" xlink:href="#cG"/></g><g id="am"><use transform="matrix(0.05,0,0,0.05,0,0)" xlink:href="#cH"/><use transform="matrix(0.05,0,0,0.05,10,0)" xlink:href="#cH"/></g><g id="an"><use transform="matrix(0.05,0,0,0.05,0,0)" xlink:href="#cH"/><use transform="matrix(0.05,0,0,0.05,10,0)" xlink:href="#cI"/></g><g id="ao"><use transform="matrix(0.05,0,0,0.05,0,0)" xlink:href="#cH"/><use transform="matrix(0.05,0,0,0.05,10,0)" xlink:href="#cJ"/></g><g id="ap"><use transform="matrix(0.05,0,0,0.05,0,0)" xlink:href="#cH"/><use transform="matrix(0.05,0,0,0.05,10,0)" xlink:href="#cK"/></g><g id="aq"><use transform="matrix(0.05,0,0,0.05,0,0)" xlink:href="#cH"/><use transform="matrix(0.05,0,0,0.05,10,0)" xlink:href="#cL"/></g><g id="ar"><use transform="matrix(0.05,0,0,0.05,0,0)" xlink:href="#cH"/><use transform="matrix(0.05,0,0,0.05,10,0)" xlink:href="#cM"/></g><g id="as"><use transform="matrix(0.05,0,0,0.05,0,0)" xlink:href="#cH"/><use transform="matrix(0.05,0,0,0.05,10,0)" xlink:href="#cN"/></g><g id="at"><use transform="matrix(0.05,0,0,0.05,0,0)" xlink:href="#cI"/><use transform="matrix(0.05,0,0,0.05,10,0)" xlink:href="#cC"/></g><g id="au"><use transform="matrix(0.05,0,0,0.05,0,0)" xlink:href="#cI"/><use transform="matrix(0.05,0,0,0.05,10,0)" xlink:href="#cB"/></g><g id="av"><use transform="matrix(0.05,0,0,0.05,0,0)" xlink:href="#cI"/><use transform="matrix(0.05,0,0,0.05,10,0)" xlink:href="#cG"/></g><path d="M30 0v-248h187v28H63v79h144v27H63v87h162V0H30" id="cY"/><path d="M210-169c-67 3-38 105-44 169h-31v-121c0-29-5-50-35-48C34-165 62-65 56 0H25l-1-190h30c1 10-1 24 2 32 10-44 99-50 107 0 11-21 27-35 58-36 85-2 47 119 55 194h-31v-121c0-29-5-49-35-48" id="cZ"/><g id="aw"><use transform="matrix(0.05,0,0,0.05,0,0)" xlink:href="#cY"/><use transform="matrix(0.05,0,0,0.05,12,0)" xlink:href="#cZ"/><use transform="matrix(0.05,0,0,0.05,26.950000000000003,0)" xlink:href="#cq"/><use transform="matrix(0.05,0,0,0.05,36.95,0)" xlink:href="#cu"/><use transform="matrix(0.05,0,0,0.05,41.95,0)" xlink:href="#cv"/><use transform="matrix(0.05,0,0,0.05,45.900000000000006,0)" xlink:href="#cq"/><use transform="matrix(0.05,0,0,0.05,55.900000000000006,0)" xlink:href="#cw"/><use transform="matrix(0.05,0,0,0.05,65.9,0)" xlink:href="#cy"/><use transform="matrix(0.05,0,0,0.05,75.9,0)" xlink:href="#cr"/></g><path d="M115-194c55 1 70 41 70 98S169 2 115 4C84 4 66-9 55-30l1 105H24l-1-265h31l2 30c10-21 28-34 59-34zm-8 174c40 0 45-34 45-75s-6-73-45-74c-42 0-51 32-51 76 0 43 10 73 51 73" id="da"/><g id="ax"><use transform="matrix(0.05,0,0,0.05,0,0)" xlink:href="#cO"/><use transform="matrix(0.05,0,0,0.05,12,0)" xlink:href="#cA"/><use transform="matrix(0.05,0,0,0.05,21,0)" xlink:href="#cZ"/><use transform="matrix(0.05,0,0,0.05,35.95,0)" xlink:href="#da"/><use transform="matrix(0.05,0,0,0.05,45.95,0)" xlink:href="#cu"/><use transform="matrix(0.05,0,0,0.05,50.95,0)" xlink:href="#cq"/><use transform="matrix(0.05,0,0,0.05,60.95,0)" xlink:href="#cZ"/><use transform="matrix(0.05,0,0,0.05,75.9,0)" xlink:href="#cz"/></g><g id="ay"><use transform="matrix(0.05,0,0,0.05,0,0)" xlink:href="#cO"/><use transform="matrix(0.05,0,0,0.05,12,0)" xlink:href="#ct"/><use transform="matrix(0.05,0,0,0.05,21,0)" xlink:href="#cy"/><use transform="matrix(0.05,0,0,0.05,31,0)" xlink:href="#cr"/><use transform="matrix(0.05,0,0,0.05,34.95,0)" xlink:href="#cs"/></g><path d="M85-194c31 0 48 13 60 33l-1-100h32l1 261h-30c-2-10 0-23-3-31C134-8 116 4 85 4 32 4 16-35 15-94c0-66 23-100 70-100zm9 24c-40 0-46 34-46 75 0 40 6 74 45 74 42 0 51-32 51-76 0-42-9-74-50-73" id="db"/><g id="az"><use transform="matrix(0.05,0,0,0.05,0,0)" xlink:href="#cp"/><use transform="matrix(0.05,0,0,0.05,12.950000000000001,0)" xlink:href="#cq"/><use transform="matrix(0.05,0,0,0.05,22.950000000000003,0)" xlink:href="#cw"/><use transform="matrix(0.05,0,0,0.05,32.95,0)" xlink:href="#db"/><use transform="matrix(0.05,0,0,0.05,42.95,0)" xlink:href="#cF"/><use transform="matrix(0.05,0,0,0.05,52.95,0)" xlink:href="#ct"/><use transform="matrix(0.05,0,0,0.05,61.95,0)" xlink:href="#cu"/></g><path d="M115-194c53 0 69 39 70 98 0 66-23 100-70 100C84 3 66-7 56-30L54 0H23l1-261h32v101c10-23 28-34 59-34zm-8 174c40 0 45-34 45-75 0-40-5-75-45-74-42 0-51 32-51 76 0 43 10 73 51 73" id="dc"/><g id="aA"><use transform="matrix(0.05,0,0,0.05,0,0)" xlink:href="#cf"/><use transform="matrix(0.05,0,0,0.05,12,0)" xlink:href="#cP"/><use transform="matrix(0.05,0,0,0.05,17.95,0)" xlink:href="#cq"/><use transform="matrix(0.05,0,0,0.05,27.950000000000003,0)" xlink:href="#dc"/><use transform="matrix(0.05,0,0,0.05,37.95,0)" xlink:href="#cr"/><use transform="matrix(0.05,0,0,0.05,41.900000000000006,0)" xlink:href="#cs"/><use transform="matrix(0.05,0,0,0.05,51.900000000000006,0)" xlink:href="#cZ"/></g><path d="M197 0v-115H63V0H30v-248h33v105h134v-105h34V0h-34" id="dd"/><path d="M108 0H70L1-190h34L89-25l56-165h34" id="de"/><g id="aB"><use transform="matrix(0.05,0,0,0.05,0,0)" xlink:href="#dd"/><use transform="matrix(0.05,0,0,0.05,12.950000000000001,0)" xlink:href="#cA"/><use transform="matrix(0.05,0,0,0.05,21.950000000000003,0)" xlink:href="#da"/><use transform="matrix(0.05,0,0,0.05,31.950000000000003,0)" xlink:href="#cs"/><use transform="matrix(0.05,0,0,0.05,41.95,0)" xlink:href="#cP"/><use transform="matrix(0.05,0,0,0.05,47.900000000000006,0)" xlink:href="#cy"/><use transform="matrix(0.05,0,0,0.05,57.900000000000006,0)" xlink:href="#ct"/><use transform="matrix(0.05,0,0,0.05,66.9,0)" xlink:href="#cu"/><use transform="matrix(0.05,0,0,0.05,71.9,0)" xlink:href="#cv"/><use transform="matrix(0.05,0,0,0.05,75.85000000000001,0)" xlink:href="#de"/><use transform="matrix(0.05,0,0,0.05,84.85000000000001,0)" xlink:href="#cv"/><use transform="matrix(0.05,0,0,0.05,88.80000000000001,0)" xlink:href="#cu"/><use transform="matrix(0.05,0,0,0.05,93.80000000000001,0)" xlink:href="#cA"/></g><g id="aC"><use transform="matrix(0.05,0,0,0.05,0,0)" xlink:href="#cf"/><use transform="matrix(0.05,0,0,0.05,12,0)" xlink:href="#cs"/><use transform="matrix(0.05,0,0,0.05,22,0)" xlink:href="#cs"/><use transform="matrix(0.05,0,0,0.05,32,0)" xlink:href="#cP"/></g><g id="aD"><use transform="matrix(0.05,0,0,0.05,0,0)" xlink:href="#cf"/><use transform="matrix(0.05,0,0,0.05,12,0)" xlink:href="#cP"/><use transform="matrix(0.05,0,0,0.05,17.95,0)" xlink:href="#cq"/><use transform="matrix(0.05,0,0,0.05,27.950000000000003,0)" xlink:href="#cz"/><use transform="matrix(0.05,0,0,0.05,36.95,0)" xlink:href="#cq"/><use transform="matrix(0.05,0,0,0.05,46.95,0)" xlink:href="#ct"/><use transform="matrix(0.05,0,0,0.05,55.95,0)" xlink:href="#cv"/><use transform="matrix(0.05,0,0,0.05,59.900000000000006,0)" xlink:href="#cy"/><use transform="matrix(0.05,0,0,0.05,69.9,0)" xlink:href="#cr"/></g><g id="aE"><use transform="matrix(0.05,0,0,0.05,0,0)" xlink:href="#cQ"/><use transform="matrix(0.05,0,0,0.05,8.950000000000001,0)" xlink:href="#cq"/><use transform="matrix(0.05,0,0,0.05,18.950000000000003,0)" xlink:href="#cu"/><use transform="matrix(0.05,0,0,0.05,23.950000000000003,0)" xlink:href="#cy"/><use transform="matrix(0.05,0,0,0.05,33.95,0)" xlink:href="#cr"/></g><path d="M101-234c-31-9-42 10-38 44h38v23H63V0H32v-167H5v-23h27c-7-52 17-82 69-68v24" id="df"/><g id="aF"><use transform="matrix(0.05,0,0,0.05,0,0)" xlink:href="#cW"/><use transform="matrix(0.05,0,0,0.05,12.950000000000001,0)" xlink:href="#cv"/><use transform="matrix(0.05,0,0,0.05,16.900000000000002,0)" xlink:href="#df"/><use transform="matrix(0.05,0,0,0.05,21.55,0)" xlink:href="#df"/><use transform="matrix(0.05,0,0,0.05,26.55,0)" xlink:href="#cv"/><use transform="matrix(0.05,0,0,0.05,30.5,0)" xlink:href="#ct"/><use transform="matrix(0.05,0,0,0.05,39.5,0)" xlink:href="#cF"/><use transform="matrix(0.05,0,0,0.05,49.5,0)" xlink:href="#cr"/><use transform="matrix(0.05,0,0,0.05,53.45,0)" xlink:href="#cu"/><use transform="matrix(0.05,0,0,0.05,58.45,0)" xlink:href="#cv"/><use transform="matrix(0.05,0,0,0.05,62.400000000000006,0)" xlink:href="#cs"/><use transform="matrix(0.05,0,0,0.05,72.4,0)" xlink:href="#cz"/></g><g id="aG"><use transform="matrix(0.05,0,0,0.05,0,0)" xlink:href="#cO"/><use transform="matrix(0.05,0,0,0.05,12,0)" xlink:href="#ct"/><use transform="matrix(0.05,0,0,0.05,21,0)" xlink:href="#cq"/><use transform="matrix(0.05,0,0,0.05,31,0)" xlink:href="#cP"/><use transform="matrix(0.05,0,0,0.05,36.95,0)" xlink:href="#cs"/></g><path d="M33 0v-248h34V0H33" id="dg"/><g id="aH"><use transform="matrix(0.05,0,0,0.05,0,0)" xlink:href="#dg"/><use transform="matrix(0.05,0,0,0.05,5,0)" xlink:href="#cZ"/><use transform="matrix(0.05,0,0,0.05,19.950000000000003,0)" xlink:href="#da"/><use transform="matrix(0.05,0,0,0.05,29.950000000000003,0)" xlink:href="#cy"/><use transform="matrix(0.05,0,0,0.05,39.95,0)" xlink:href="#ct"/><use transform="matrix(0.05,0,0,0.05,48.95,0)" xlink:href="#cu"/></g><g id="aI"><use transform="matrix(0.05,0,0,0.05,0,0)" xlink:href="#cQ"/><use transform="matrix(0.05,0,0,0.05,8.950000000000001,0)" xlink:href="#cy"/><use transform="matrix(0.05,0,0,0.05,18.950000000000003,0)" xlink:href="#cR"/><use transform="matrix(0.05,0,0,0.05,28.950000000000003,0)" xlink:href="#cz"/></g><path d="M67-125c0 53 21 87 73 88 37 1 54-22 65-47l45 17C233-25 199 4 140 4 58 4 20-42 15-125 8-235 124-281 211-232c18 10 29 29 36 50l-46 12c-8-25-30-41-62-41-52 0-71 34-72 86" id="dh"/><path d="M25 0v-261h50V0H25" id="di"/><path d="M190-63c-7 42-38 67-86 67-59 0-84-38-90-98-12-110 154-137 174-36l-49 2c-2-19-15-32-35-32-30 0-35 28-38 64-6 74 65 87 74 30" id="dj"/><g id="aJ"><use transform="matrix(0.05,0,0,0.05,0,0)" xlink:href="#dh"/><use transform="matrix(0.05,0,0,0.05,12.950000000000001,0)" xlink:href="#cl"/><use transform="matrix(0.05,0,0,0.05,23.900000000000002,0)" xlink:href="#di"/><use transform="matrix(0.05,0,0,0.05,28.900000000000002,0)" xlink:href="#di"/><use transform="matrix(0.05,0,0,0.05,33.900000000000006,0)" xlink:href="#bX"/><use transform="matrix(0.05,0,0,0.05,43.900000000000006,0)" xlink:href="#dj"/><use transform="matrix(0.05,0,0,0.05,53.900000000000006,0)" xlink:href="#ck"/><use transform="matrix(0.05,0,0,0.05,59.85,0)" xlink:href="#cj"/><use transform="matrix(0.05,0,0,0.05,64.85000000000001,0)" xlink:href="#cl"/><use transform="matrix(0.05,0,0,0.05,75.80000000000001,0)" xlink:href="#ci"/></g><g id="aK"><use transform="matrix(0.05,0,0,0.05,0,0)" xlink:href="#cg"/><use transform="matrix(0.05,0,0,0.05,14,0)" xlink:href="#dj"/><use transform="matrix(0.05,0,0,0.05,24,0)" xlink:href="#dj"/><use transform="matrix(0.05,0,0,0.05,34,0)" xlink:href="#bY"/><use transform="matrix(0.05,0,0,0.05,44,0)" xlink:href="#bZ"/><use transform="matrix(0.05,0,0,0.05,54,0)" xlink:href="#cj"/><use transform="matrix(0.05,0,0,0.05,59,0)" xlink:href="#cl"/><use transform="matrix(0.05,0,0,0.05,69.95,0)" xlink:href="#ci"/></g><g id="aL"><use transform="matrix(0.05,0,0,0.05,0,0)" xlink:href="#cg"/><use transform="matrix(0.05,0,0,0.05,14,0)" xlink:href="#dj"/><use transform="matrix(0.05,0,0,0.05,24,0)" xlink:href="#dj"/><use transform="matrix(0.05,0,0,0.05,34,0)" xlink:href="#bY"/><use transform="matrix(0.05,0,0,0.05,44,0)" xlink:href="#bZ"/><use transform="matrix(0.05,0,0,0.05,54,0)" xlink:href="#cj"/><use transform="matrix(0.05,0,0,0.05,59,0)" xlink:href="#cl"/><use transform="matrix(0.05,0,0,0.05,69.95,0)" xlink:href="#ci"/></g><g id="aM"><use transform="matrix(0.05,0,0,0.05,0,0)" xlink:href="#bS"/><use transform="matrix(0.05,0,0,0.05,12.950000000000001,0)" xlink:href="#bX"/><use transform="matrix(0.05,0,0,0.05,22.950000000000003,0)" xlink:href="#co"/></g><g id="aN"><use transform="matrix(0.05,0,0,0.05,0,0)" xlink:href="#cY"/><use transform="matrix(0.05,0,0,0.05,12,0)" xlink:href="#da"/><use transform="matrix(0.05,0,0,0.05,22,0)" xlink:href="#cv"/><use transform="matrix(0.05,0,0,0.05,25.950000000000003,0)" xlink:href="#cz"/><use transform="matrix(0.05,0,0,0.05,34.95,0)" xlink:href="#cq"/><use transform="matrix(0.05,0,0,0.05,44.95,0)" xlink:href="#db"/><use transform="matrix(0.05,0,0,0.05,54.95,0)" xlink:href="#cs"/></g><g id="aO"><use transform="matrix(0.05,0,0,0.05,0,0)" xlink:href="#cW"/><use transform="matrix(0.05,0,0,0.05,12.950000000000001,0)" xlink:href="#cy"/><use transform="matrix(0.05,0,0,0.05,22.950000000000003,0)" xlink:href="#cu"/><use transform="matrix(0.05,0,0,0.05,27.950000000000003,0)" xlink:href="#cs"/></g><path d="M233-177c-1 41-23 64-60 70L243 0h-38l-65-103H63V0H30v-248c88 3 205-21 203 71zM63-129c60-2 137 13 137-47 0-61-80-42-137-45v92" id="dk"/><g id="aP"><use transform="matrix(0.05,0,0,0.05,0,0)" xlink:href="#dk"/><use transform="matrix(0.05,0,0,0.05,12.950000000000001,0)" xlink:href="#cs"/><use transform="matrix(0.05,0,0,0.05,22.950000000000003,0)" xlink:href="#cy"/><use transform="matrix(0.05,0,0,0.05,32.95,0)" xlink:href="#cz"/><use transform="matrix(0.05,0,0,0.05,41.95,0)" xlink:href="#cq"/><use transform="matrix(0.05,0,0,0.05,51.95,0)" xlink:href="#cw"/></g><path d="M186 0v-106H76V0H24v-248h52v99h110v-99h50V0h-50" id="dl"/><g id="aQ"><use transform="matrix(0.0987654320987654,0,0,0.0987654320987654,0,0)" xlink:href="#cm"/><use transform="matrix(0.0987654320987654,0,0,0.0987654320987654,23.703703703703695,0)" xlink:href="#bW"/><use transform="matrix(0.0987654320987654,0,0,0.0987654320987654,53.23456790123455,0)" xlink:href="#dl"/><use transform="matrix(0.0987654320987654,0,0,0.0987654320987654,78.81481481481478,0)" xlink:href="#dh"/></g><g id="aR"><use transform="matrix(0.0987654320987654,0,0,0.0987654320987654,0,0)" xlink:href="#bW"/><use transform="matrix(0.0987654320987654,0,0,0.0987654320987654,29.530864197530853,0)" xlink:href="#cU"/><use transform="matrix(0.0987654320987654,0,0,0.0987654320987654,55.11111111111109,0)" xlink:href="#cT"/></g><path d="M128 0H69L1-190h53L99-40l48-150h52" id="dm"/><path d="M165-50V0h-47v-50H5v-38l105-160h55v161h33v37h-33zm-47-37l2-116L46-87h72" id="dn"/><path d="M24 0v-54h51V0H24" id="do"/><g id="aS"><use transform="matrix(0.0987654320987654,0,0,0.0987654320987654,0,0)" xlink:href="#dm"/><use transform="matrix(0.0987654320987654,0,0,0.0987654320987654,19.753086419753078,0)" xlink:href="#dn"/><use transform="matrix(0.0987654320987654,0,0,0.0987654320987654,39.506172839506156,0)" xlink:href="#do"/><use transform="matrix(0.0987654320987654,0,0,0.0987654320987654,49.382716049382694,0)" xlink:href="#bU"/></g><g id="aT"><use transform="matrix(0.0987654320987654,0,0,0.0987654320987654,0,0)" xlink:href="#dh"/><use transform="matrix(0.0987654320987654,0,0,0.0987654320987654,25.58024691358024,0)" xlink:href="#cl"/><use transform="matrix(0.0987654320987654,0,0,0.0987654320987654,47.20987654320986,0)" xlink:href="#di"/><use transform="matrix(0.0987654320987654,0,0,0.0987654320987654,57.0864197530864,0)" xlink:href="#di"/><use transform="matrix(0.0987654320987654,0,0,0.0987654320987654,66.96296296296293,0)" xlink:href="#bX"/><use transform="matrix(0.0987654320987654,0,0,0.0987654320987654,86.71604938271601,0)" xlink:href="#dj"/><use transform="matrix(0.0987654320987654,0,0,0.0987654320987654,106.46913580246908,0)" xlink:href="#ck"/><use transform="matrix(0.0987654320987654,0,0,0.0987654320987654,118.22222222222219,0)" xlink:href="#cj"/><use transform="matrix(0.0987654320987654,0,0,0.0987654320987654,128.0987654320987,0)" xlink:href="#cl"/><use transform="matrix(0.0987654320987654,0,0,0.0987654320987654,149.72839506172832,0)" xlink:href="#ci"/></g><g id="aU"><use transform="matrix(0.0987654320987654,0,0,0.0987654320987654,0,0)" xlink:href="#cg"/><use transform="matrix(0.0987654320987654,0,0,0.0987654320987654,27.654320987654312,0)" xlink:href="#dj"/><use transform="matrix(0.0987654320987654,0,0,0.0987654320987654,47.40740740740739,0)" xlink:href="#dj"/><use transform="matrix(0.0987654320987654,0,0,0.0987654320987654,67.16049382716047,0)" xlink:href="#bY"/><use transform="matrix(0.0987654320987654,0,0,0.0987654320987654,86.91358024691354,0)" xlink:href="#bZ"/><use transform="matrix(0.0987654320987654,0,0,0.0987654320987654,106.66666666666661,0)" xlink:href="#cj"/><use transform="matrix(0.0987654320987654,0,0,0.0987654320987654,116.54320987654314,0)" xlink:href="#cl"/><use transform="matrix(0.0987654320987654,0,0,0.0987654320987654,138.17283950617278,0)" xlink:href="#ci"/></g><g id="aV"><use transform="matrix(0.0987654320987654,0,0,0.0987654320987654,0,0)" xlink:href="#cU"/><use transform="matrix(0.0987654320987654,0,0,0.0987654320987654,25.58024691358024,0)" xlink:href="#bY"/><use transform="matrix(0.0987654320987654,0,0,0.0987654320987654,45.333333333333314,0)" xlink:href="#ck"/><use transform="matrix(0.0987654320987654,0,0,0.0987654320987654,57.0864197530864,0)" xlink:href="#bY"/></g><path d="M88-194c31-1 46 15 58 34l-1-101h50l1 261h-48c-2-10 0-23-3-31C134-8 116 4 84 4 32 4 16-41 15-95c0-56 19-97 73-99zm17 164c33 0 40-30 41-66 1-37-9-64-41-64s-38 30-39 65c0 43 13 65 39 65" id="dp"/><g id="aW"><use transform="matrix(0.0987654320987654,0,0,0.0987654320987654,0,0)" xlink:href="#bW"/><use transform="matrix(0.0987654320987654,0,0,0.0987654320987654,29.530864197530853,0)" xlink:href="#cl"/><use transform="matrix(0.0987654320987654,0,0,0.0987654320987654,51.16049382716048,0)" xlink:href="#dp"/><use transform="matrix(0.0987654320987654,0,0,0.0987654320987654,72.7901234567901,0)" xlink:href="#bX"/><use transform="matrix(0.0987654320987654,0,0,0.0987654320987654,92.54320987654317,0)" xlink:href="#di"/></g><path d="M30 0v-248h33v221h125V0H30" id="dq"/><g id="aX"><use transform="matrix(0.05,0,0,0.05,0,0)" xlink:href="#dq"/><use transform="matrix(0.05,0,0,0.05,10,0)" xlink:href="#cq"/><use transform="matrix(0.05,0,0,0.05,20,0)" xlink:href="#cR"/><use transform="matrix(0.05,0,0,0.05,30,0)" xlink:href="#cv"/><use transform="matrix(0.05,0,0,0.05,33.95,0)" xlink:href="#ct"/><use transform="matrix(0.05,0,0,0.05,42.95,0)" xlink:href="#cr"/><use transform="matrix(0.05,0,0,0.05,46.900000000000006,0)" xlink:href="#cA"/></g><g id="aY"><use transform="matrix(0.05,0,0,0.05,0,0)" xlink:href="#cX"/><use transform="matrix(0.05,0,0,0.05,11,0)" xlink:href="#cs"/><use transform="matrix(0.05,0,0,0.05,21,0)" xlink:href="#cP"/><use transform="matrix(0.05,0,0,0.05,26.950000000000003,0)" xlink:href="#cz"/><use transform="matrix(0.05,0,0,0.05,35.95,0)" xlink:href="#cv"/><use transform="matrix(0.05,0,0,0.05,39.900000000000006,0)" xlink:href="#cq"/><use transform="matrix(0.05,0,0,0.05,49.900000000000006,0)" xlink:href="#cw"/></g><path d="M33 0v-38h34V0H33" id="dr"/><g id="aZ"><use transform="matrix(0.05,0,0,0.05,0,0)" xlink:href="#de"/><use transform="matrix(0.05,0,0,0.05,9,0)" xlink:href="#cI"/><use transform="matrix(0.05,0,0,0.05,19,0)" xlink:href="#dr"/><use transform="matrix(0.05,0,0,0.05,24,0)" xlink:href="#cC"/></g><g id="ba"><use transform="matrix(0.05,0,0,0.05,0,0)" xlink:href="#cG"/><use transform="matrix(0.05,0,0,0.05,10,0)" xlink:href="#cG"/><use transform="matrix(0.05,0,0,0.05,20,0)" xlink:href="#ce"/><use transform="matrix(0.05,0,0,0.05,25,0)" xlink:href="#cK"/><use transform="matrix(0.05,0,0,0.05,35,0)" xlink:href="#ce"/><use transform="matrix(0.05,0,0,0.05,40,0)" xlink:href="#cG"/><use transform="matrix(0.05,0,0,0.05,50,0)" xlink:href="#cC"/><use transform="matrix(0.05,0,0,0.05,60,0)" xlink:href="#cG"/><use transform="matrix(0.05,0,0,0.05,70,0)" xlink:href="#cG"/></g><g id="bb"><use transform="matrix(0.061728395061728385,0,0,0.061728395061728385,0,0)" xlink:href="#bS"/><use transform="matrix(0.061728395061728385,0,0,0.061728395061728385,15.987654320987652,0)" xlink:href="#bX"/><use transform="matrix(0.061728395061728385,0,0,0.061728395061728385,28.33333333333333,0)" xlink:href="#co"/></g><path fill="#0c7cba" d="M190 0L58-211 59 0H30v-248h39L202-35l-2-213h31V0h-41" id="ds"/><path fill="#0c7cba" d="M100-194c63 0 86 42 84 106H49c0 40 14 67 53 68 26 1 43-12 49-29l28 8c-11 28-37 45-77 45C44 4 14-33 15-96c1-61 26-98 85-98zm52 81c6-60-76-77-97-28-3 7-6 17-6 28h103" id="dt"/><path fill="#0c7cba" d="M206 0h-36l-40-164L89 0H53L-1-190h32L70-26l43-164h34l41 164 42-164h31" id="du"/><g id="bc"><use transform="matrix(0.05,0,0,0.05,0,0)" xlink:href="#ds"/><use transform="matrix(0.05,0,0,0.05,12.950000000000001,0)" xlink:href="#dt"/><use transform="matrix(0.05,0,0,0.05,22.950000000000003,0)" xlink:href="#du"/></g><path fill="#0c7cba" d="M59-47c-2 24 18 29 38 22v24C64 9 27 4 27-40v-127H5v-23h24l9-43h21v43h35v23H59v120" id="dv"/><path fill="#0c7cba" d="M141-36C126-15 110 5 73 4 37 3 15-17 15-53c-1-64 63-63 125-63 3-35-9-54-41-54-24 1-41 7-42 31l-33-3c5-37 33-52 76-52 45 0 72 20 72 64v82c-1 20 7 32 28 27v20c-31 9-61-2-59-35zM48-53c0 20 12 33 32 33 41-3 63-29 60-74-43 2-92-5-92 41" id="dw"/><path fill="#0c7cba" d="M115-194c53 0 69 39 70 98 0 66-23 100-70 100C84 3 66-7 56-30L54 0H23l1-261h32v101c10-23 28-34 59-34zm-8 174c40 0 45-34 45-75 0-40-5-75-45-74-42 0-51 32-51 76 0 43 10 73 51 73" id="dx"/><path fill="#0c7cba" d="M24 0v-261h32V0H24" id="dy"/><path fill="#0c7cba" d="M0 4l72-265h28L28 4H0" id="dz"/><path fill="#0c7cba" d="M101-234c-31-9-42 10-38 44h38v23H63V0H32v-167H5v-23h27c-7-52 17-82 69-68v24" id="dA"/><path fill="#0c7cba" d="M24-231v-30h32v30H24zM24 0v-190h32V0H24" id="dB"/><path fill="#0c7cba" d="M85-194c31 0 48 13 60 33l-1-100h32l1 261h-30c-2-10 0-23-3-31C134-8 116 4 85 4 32 4 16-35 15-94c0-66 23-100 70-100zm9 24c-40 0-46 34-46 75 0 40 6 74 45 74 42 0 51-32 51-76 0-42-9-74-50-73" id="dC"/><path fill="#0c7cba" d="M135-143c-3-34-86-38-87 0 15 53 115 12 119 90S17 21 10-45l28-5c4 36 97 45 98 0-10-56-113-15-118-90-4-57 82-63 122-42 12 7 21 19 24 35" id="dD"/><g id="bd"><use transform="matrix(0.05,0,0,0.05,0,0)" xlink:href="#dv"/><use transform="matrix(0.05,0,0,0.05,5,0)" xlink:href="#dw"/><use transform="matrix(0.05,0,0,0.05,15,0)" xlink:href="#dx"/><use transform="matrix(0.05,0,0,0.05,25,0)" xlink:href="#dy"/><use transform="matrix(0.05,0,0,0.05,28.950000000000003,0)" xlink:href="#dt"/><use transform="matrix(0.05,0,0,0.05,38.95,0)" xlink:href="#dz"/><use transform="matrix(0.05,0,0,0.05,43.95,0)" xlink:href="#dA"/><use transform="matrix(0.05,0,0,0.05,48.95,0)" xlink:href="#dB"/><use transform="matrix(0.05,0,0,0.05,52.900000000000006,0)" xlink:href="#dt"/><use transform="matrix(0.05,0,0,0.05,62.900000000000006,0)" xlink:href="#dy"/><use transform="matrix(0.05,0,0,0.05,66.85000000000001,0)" xlink:href="#dC"/><use transform="matrix(0.05,0,0,0.05,76.85000000000001,0)" xlink:href="#dD"/></g><path fill="#0c7cba" d="M117-194c89-4 53 116 60 194h-32v-121c0-31-8-49-39-48C34-167 62-67 57 0H25l-1-190h30c1 10-1 24 2 32 11-22 29-35 61-36" id="dE"/><g id="be"><use transform="matrix(0.05,0,0,0.05,0,0)" xlink:href="#dB"/><use transform="matrix(0.05,0,0,0.05,3.95,0)" xlink:href="#dE"/></g><path fill="#0c7cba" d="M137 0h-34L2-248h35l83 218 83-218h36" id="dF"/><path fill="#0c7cba" d="M114-163C36-179 61-72 57 0H25l-1-190h30c1 12-1 29 2 39 6-27 23-49 58-41v29" id="dG"/><path fill="#0c7cba" d="M100-194c62-1 85 37 85 99 1 63-27 99-86 99S16-35 15-95c0-66 28-99 85-99zM99-20c44 1 53-31 53-75 0-43-8-75-51-75s-53 32-53 75 10 74 51 75" id="dH"/><g id="bf"><use transform="matrix(0.05,0,0,0.05,0,0)" xlink:href="#dF"/><use transform="matrix(0.05,0,0,0.05,11,0)" xlink:href="#dt"/><use transform="matrix(0.05,0,0,0.05,21,0)" xlink:href="#dG"/><use transform="matrix(0.05,0,0,0.05,26.950000000000003,0)" xlink:href="#dD"/><use transform="matrix(0.05,0,0,0.05,35.95,0)" xlink:href="#dB"/><use transform="matrix(0.05,0,0,0.05,39.900000000000006,0)" xlink:href="#dH"/><use transform="matrix(0.05,0,0,0.05,49.900000000000006,0)" xlink:href="#dE"/></g><path fill="#0c7cba" d="M155-56V0h-30v-56H8v-25l114-167h33v167h35v25h-35zm-30-156c-27 46-58 90-88 131h88v-131" id="dI"/><use transform="matrix(0.05,0,0,0.05,0,0)" xlink:href="#dI" id="bg"/><path fill="#0c7cba" d="M115-194c55 1 70 41 70 98S169 2 115 4C84 4 66-9 55-30l1 105H24l-1-265h31l2 30c10-21 28-34 59-34zm-8 174c40 0 45-34 45-75s-6-73-45-74c-42 0-51 32-51 76 0 43 10 73 51 73" id="dJ"/><path fill="#0c7cba" d="M96-169c-40 0-48 33-48 73s9 75 48 75c24 0 41-14 43-38l32 2c-6 37-31 61-74 61-59 0-76-41-82-99-10-93 101-131 147-64 4 7 5 14 7 22l-32 3c-4-21-16-35-41-35" id="dK"/><g id="bh"><use transform="matrix(0.05,0,0,0.05,0,0)" xlink:href="#dD"/><use transform="matrix(0.05,0,0,0.05,9,0)" xlink:href="#dJ"/><use transform="matrix(0.05,0,0,0.05,19,0)" xlink:href="#dt"/><use transform="matrix(0.05,0,0,0.05,29,0)" xlink:href="#dK"/><use transform="matrix(0.05,0,0,0.05,38,0)" xlink:href="#dB"/><use transform="matrix(0.05,0,0,0.05,41.95,0)" xlink:href="#dA"/><use transform="matrix(0.05,0,0,0.05,46.95,0)" xlink:href="#dB"/><use transform="matrix(0.05,0,0,0.05,50.900000000000006,0)" xlink:href="#dK"/><use transform="matrix(0.05,0,0,0.05,59.900000000000006,0)" xlink:href="#dw"/><use transform="matrix(0.05,0,0,0.05,69.9,0)" xlink:href="#dv"/><use transform="matrix(0.05,0,0,0.05,74.9,0)" xlink:href="#dB"/><use transform="matrix(0.05,0,0,0.05,78.85000000000001,0)" xlink:href="#dH"/><use transform="matrix(0.05,0,0,0.05,88.85000000000001,0)" xlink:href="#dE"/><use transform="matrix(0.05,0,0,0.05,98.85000000000001,0)" xlink:href="#dD"/></g><path fill="#54c45e" d="M190 0L58-211 59 0H30v-248h39L202-35l-2-213h31V0h-41" id="dL"/><path fill="#54c45e" d="M100-194c63 0 86 42 84 106H49c0 40 14 67 53 68 26 1 43-12 49-29l28 8c-11 28-37 45-77 45C44 4 14-33 15-96c1-61 26-98 85-98zm52 81c6-60-76-77-97-28-3 7-6 17-6 28h103" id="dM"/><path fill="#54c45e" d="M206 0h-36l-40-164L89 0H53L-1-190h32L70-26l43-164h34l41 164 42-164h31" id="dN"/><g id="bi"><use transform="matrix(0.05,0,0,0.05,0,0)" xlink:href="#dL"/><use transform="matrix(0.05,0,0,0.05,12.950000000000001,0)" xlink:href="#dM"/><use transform="matrix(0.05,0,0,0.05,22.950000000000003,0)" xlink:href="#dN"/></g><path fill="#54c45e" d="M59-47c-2 24 18 29 38 22v24C64 9 27 4 27-40v-127H5v-23h24l9-43h21v43h35v23H59v120" id="dO"/><path fill="#54c45e" d="M141-36C126-15 110 5 73 4 37 3 15-17 15-53c-1-64 63-63 125-63 3-35-9-54-41-54-24 1-41 7-42 31l-33-3c5-37 33-52 76-52 45 0 72 20 72 64v82c-1 20 7 32 28 27v20c-31 9-61-2-59-35zM48-53c0 20 12 33 32 33 41-3 63-29 60-74-43 2-92-5-92 41" id="dP"/><path fill="#54c45e" d="M115-194c53 0 69 39 70 98 0 66-23 100-70 100C84 3 66-7 56-30L54 0H23l1-261h32v101c10-23 28-34 59-34zm-8 174c40 0 45-34 45-75 0-40-5-75-45-74-42 0-51 32-51 76 0 43 10 73 51 73" id="dQ"/><path fill="#54c45e" d="M24 0v-261h32V0H24" id="dR"/><path fill="#54c45e" d="M0 4l72-265h28L28 4H0" id="dS"/><path fill="#54c45e" d="M101-234c-31-9-42 10-38 44h38v23H63V0H32v-167H5v-23h27c-7-52 17-82 69-68v24" id="dT"/><path fill="#54c45e" d="M24-231v-30h32v30H24zM24 0v-190h32V0H24" id="dU"/><path fill="#54c45e" d="M85-194c31 0 48 13 60 33l-1-100h32l1 261h-30c-2-10 0-23-3-31C134-8 116 4 85 4 32 4 16-35 15-94c0-66 23-100 70-100zm9 24c-40 0-46 34-46 75 0 40 6 74 45 74 42 0 51-32 51-76 0-42-9-74-50-73" id="dV"/><path fill="#54c45e" d="M135-143c-3-34-86-38-87 0 15 53 115 12 119 90S17 21 10-45l28-5c4 36 97 45 98 0-10-56-113-15-118-90-4-57 82-63 122-42 12 7 21 19 24 35" id="dW"/><g id="bj"><use transform="matrix(0.05,0,0,0.05,0,0)" xlink:href="#dO"/><use transform="matrix(0.05,0,0,0.05,5,0)" xlink:href="#dP"/><use transform="matrix(0.05,0,0,0.05,15,0)" xlink:href="#dQ"/><use transform="matrix(0.05,0,0,0.05,25,0)" xlink:href="#dR"/><use transform="matrix(0.05,0,0,0.05,28.950000000000003,0)" xlink:href="#dM"/><use transform="matrix(0.05,0,0,0.05,38.95,0)" xlink:href="#dS"/><use transform="matrix(0.05,0,0,0.05,43.95,0)" xlink:href="#dT"/><use transform="matrix(0.05,0,0,0.05,48.95,0)" xlink:href="#dU"/><use transform="matrix(0.05,0,0,0.05,52.900000000000006,0)" xlink:href="#dM"/><use transform="matrix(0.05,0,0,0.05,62.900000000000006,0)" xlink:href="#dR"/><use transform="matrix(0.05,0,0,0.05,66.85000000000001,0)" xlink:href="#dV"/><use transform="matrix(0.05,0,0,0.05,76.85000000000001,0)" xlink:href="#dW"/></g><path fill="#54c45e" d="M117-194c89-4 53 116 60 194h-32v-121c0-31-8-49-39-48C34-167 62-67 57 0H25l-1-190h30c1 10-1 24 2 32 11-22 29-35 61-36" id="dX"/><g id="bk"><use transform="matrix(0.05,0,0,0.05,0,0)" xlink:href="#dU"/><use transform="matrix(0.05,0,0,0.05,3.95,0)" xlink:href="#dX"/></g><path fill="#54c45e" d="M137 0h-34L2-248h35l83 218 83-218h36" id="dY"/><path fill="#54c45e" d="M114-163C36-179 61-72 57 0H25l-1-190h30c1 12-1 29 2 39 6-27 23-49 58-41v29" id="dZ"/><path fill="#54c45e" d="M100-194c62-1 85 37 85 99 1 63-27 99-86 99S16-35 15-95c0-66 28-99 85-99zM99-20c44 1 53-31 53-75 0-43-8-75-51-75s-53 32-53 75 10 74 51 75" id="ea"/><g id="bl"><use transform="matrix(0.05,0,0,0.05,0,0)" xlink:href="#dY"/><use transform="matrix(0.05,0,0,0.05,11,0)" xlink:href="#dM"/><use transform="matrix(0.05,0,0,0.05,21,0)" xlink:href="#dZ"/><use transform="matrix(0.05,0,0,0.05,26.950000000000003,0)" xlink:href="#dW"/><use transform="matrix(0.05,0,0,0.05,35.95,0)" xlink:href="#dU"/><use transform="matrix(0.05,0,0,0.05,39.900000000000006,0)" xlink:href="#ea"/><use transform="matrix(0.05,0,0,0.05,49.900000000000006,0)" xlink:href="#dX"/></g><path fill="#54c45e" d="M126-127c33 6 58 20 58 59 0 88-139 92-164 29-3-8-5-16-6-25l32-3c6 27 21 44 54 44 32 0 52-15 52-46 0-38-36-46-79-43v-28c39 1 72-4 72-42 0-27-17-43-46-43-28 0-47 15-49 41l-32-3c6-42 35-63 81-64 48-1 79 21 79 65 0 36-21 52-52 59" id="eb"/><use transform="matrix(0.05,0,0,0.05,0,0)" xlink:href="#eb" id="bm"/><path fill="#54c45e" d="M115-194c55 1 70 41 70 98S169 2 115 4C84 4 66-9 55-30l1 105H24l-1-265h31l2 30c10-21 28-34 59-34zm-8 174c40 0 45-34 45-75s-6-73-45-74c-42 0-51 32-51 76 0 43 10 73 51 73" id="ec"/><path fill="#54c45e" d="M96-169c-40 0-48 33-48 73s9 75 48 75c24 0 41-14 43-38l32 2c-6 37-31 61-74 61-59 0-76-41-82-99-10-93 101-131 147-64 4 7 5 14 7 22l-32 3c-4-21-16-35-41-35" id="ed"/><g id="bn"><use transform="matrix(0.05,0,0,0.05,0,0)" xlink:href="#dW"/><use transform="matrix(0.05,0,0,0.05,9,0)" xlink:href="#ec"/><use transform="matrix(0.05,0,0,0.05,19,0)" xlink:href="#dM"/><use transform="matrix(0.05,0,0,0.05,29,0)" xlink:href="#ed"/><use transform="matrix(0.05,0,0,0.05,38,0)" xlink:href="#dU"/><use transform="matrix(0.05,0,0,0.05,41.95,0)" xlink:href="#dT"/><use transform="matrix(0.05,0,0,0.05,46.95,0)" xlink:href="#dU"/><use transform="matrix(0.05,0,0,0.05,50.900000000000006,0)" xlink:href="#ed"/><use transform="matrix(0.05,0,0,0.05,59.900000000000006,0)" xlink:href="#dP"/><use transform="matrix(0.05,0,0,0.05,69.9,0)" xlink:href="#dO"/><use transform="matrix(0.05,0,0,0.05,74.9,0)" xlink:href="#dU"/><use transform="matrix(0.05,0,0,0.05,78.85000000000001,0)" xlink:href="#ea"/><use transform="matrix(0.05,0,0,0.05,88.85000000000001,0)" xlink:href="#dX"/><use transform="matrix(0.05,0,0,0.05,98.85000000000001,0)" xlink:href="#dW"/></g><g id="bo"><use transform="matrix(0.05,0,0,0.05,0,0)" xlink:href="#cf"/><use transform="matrix(0.05,0,0,0.05,12,0)" xlink:href="#cd"/></g><g id="bp"><use transform="matrix(0.05,0,0,0.05,0,0)" xlink:href="#cf"/><use transform="matrix(0.05,0,0,0.05,12,0)" xlink:href="#cP"/><use transform="matrix(0.05,0,0,0.05,17.95,0)" xlink:href="#cv"/><use transform="matrix(0.05,0,0,0.05,21.9,0)" xlink:href="#cZ"/><use transform="matrix(0.05,0,0,0.05,36.85,0)" xlink:href="#cy"/><use transform="matrix(0.05,0,0,0.05,46.85,0)" xlink:href="#cP"/><use transform="matrix(0.05,0,0,0.05,52.800000000000004,0)" xlink:href="#cA"/></g><g id="bq"><use transform="matrix(0.05,0,0,0.05,0,0)" xlink:href="#cd"/><use transform="matrix(0.05,0,0,0.05,12,0)" xlink:href="#cs"/><use transform="matrix(0.05,0,0,0.05,22,0)" xlink:href="#cA"/></g><g id="br"><use transform="matrix(0.05,0,0,0.05,0,0)" xlink:href="#cc"/><use transform="matrix(0.05,0,0,0.05,10.950000000000001,0)" xlink:href="#cd"/></g><g id="bs"><use transform="matrix(0.05,0,0,0.05,0,0)" xlink:href="#cc"/><use transform="matrix(0.05,0,0,0.05,10.950000000000001,0)" xlink:href="#cq"/><use transform="matrix(0.05,0,0,0.05,20.950000000000003,0)" xlink:href="#cP"/><use transform="matrix(0.05,0,0,0.05,26.900000000000002,0)" xlink:href="#cs"/><use transform="matrix(0.05,0,0,0.05,36.900000000000006,0)" xlink:href="#cv"/><use transform="matrix(0.05,0,0,0.05,40.85000000000001,0)" xlink:href="#cR"/><use transform="matrix(0.05,0,0,0.05,50.85000000000001,0)" xlink:href="#cw"/></g><g id="bt"><use transform="matrix(0.05,0,0,0.05,0,0)" xlink:href="#cx"/><use transform="matrix(0.05,0,0,0.05,14,0)" xlink:href="#cw"/><use transform="matrix(0.05,0,0,0.05,24,0)" xlink:href="#cs"/></g><g id="bu"><use transform="matrix(0.05,0,0,0.05,0,0)" xlink:href="#cu"/><use transform="matrix(0.05,0,0,0.05,5,0)" xlink:href="#cq"/></g><path d="M9 0v-24l116-142H16v-24h144v24L44-24h123V0H9" id="ee"/><g id="bv"><use transform="matrix(0.05,0,0,0.05,0,0)" xlink:href="#ee"/><use transform="matrix(0.05,0,0,0.05,9,0)" xlink:href="#cs"/><use transform="matrix(0.05,0,0,0.05,19,0)" xlink:href="#cP"/><use transform="matrix(0.05,0,0,0.05,24.95,0)" xlink:href="#cq"/></g><g id="bw"><use transform="matrix(0.05,0,0,0.05,0,0)" xlink:href="#cq"/><use transform="matrix(0.05,0,0,0.05,10,0)" xlink:href="#cP"/></g><g id="bx"><use transform="matrix(0.05,0,0,0.05,0,0)" xlink:href="#cq"/><use transform="matrix(0.05,0,0,0.05,10,0)" xlink:href="#cw"/><use transform="matrix(0.05,0,0,0.05,20,0)" xlink:href="#cs"/></g><g id="by"><use transform="matrix(0.05,0,0,0.05,0,0)" xlink:href="#cZ"/><use transform="matrix(0.05,0,0,0.05,14.950000000000001,0)" xlink:href="#cq"/><use transform="matrix(0.05,0,0,0.05,24.950000000000003,0)" xlink:href="#cP"/><use transform="matrix(0.05,0,0,0.05,30.900000000000002,0)" xlink:href="#cs"/></g><g id="bz"><use transform="matrix(0.05,0,0,0.05,0,0)" xlink:href="#cq"/><use transform="matrix(0.05,0,0,0.05,10,0)" xlink:href="#cw"/><use transform="matrix(0.05,0,0,0.05,20,0)" xlink:href="#cs"/></g><g id="bA"><use transform="matrix(0.05,0,0,0.05,0,0)" xlink:href="#cd"/><use transform="matrix(0.05,0,0,0.05,12,0)" xlink:href="#cs"/><use transform="matrix(0.05,0,0,0.05,22,0)" xlink:href="#cA"/></g><g id="bB"><use transform="matrix(0.05,0,0,0.05,0,0)" xlink:href="#cw"/><use transform="matrix(0.05,0,0,0.05,10,0)" xlink:href="#cy"/><use transform="matrix(0.05,0,0,0.05,20,0)" xlink:href="#cZ"/><use transform="matrix(0.05,0,0,0.05,34.95,0)" xlink:href="#cs"/></g><path d="M240 0l2-218c-23 76-54 145-80 218h-23L58-218 59 0H30v-248h44l77 211c21-75 51-140 76-211h43V0h-30" id="ef"/><g id="bC"><use transform="matrix(0.05,0,0,0.05,0,0)" xlink:href="#ef"/><use transform="matrix(0.05,0,0,0.05,14.950000000000001,0)" xlink:href="#cq"/><use transform="matrix(0.05,0,0,0.05,24.950000000000003,0)" xlink:href="#cz"/><use transform="matrix(0.05,0,0,0.05,33.95,0)" xlink:href="#cu"/></g><g id="bD"><use transform="matrix(0.05,0,0,0.05,0,0)" xlink:href="#cu"/><use transform="matrix(0.05,0,0,0.05,5,0)" xlink:href="#cy"/><use transform="matrix(0.05,0,0,0.05,15,0)" xlink:href="#dc"/><use transform="matrix(0.05,0,0,0.05,25,0)" xlink:href="#cr"/><use transform="matrix(0.05,0,0,0.05,28.950000000000003,0)" xlink:href="#cs"/><use transform="matrix(0.05,0,0,0.05,38.95,0)" xlink:href="#cz"/></g><path d="M106-169C34-169 62-67 57 0H25v-261h32l-1 103c12-21 28-36 61-36 89 0 53 116 60 194h-32v-121c2-32-8-49-39-48" id="eg"/><g id="bE"><use transform="matrix(0.05,0,0,0.05,0,0)" xlink:href="#eg"/><use transform="matrix(0.05,0,0,0.05,10,0)" xlink:href="#cy"/><use transform="matrix(0.05,0,0,0.05,20,0)" xlink:href="#de"/><use transform="matrix(0.05,0,0,0.05,29,0)" xlink:href="#cs"/></g><use transform="matrix(0.05,0,0,0.05,0,0)" xlink:href="#cy" id="bF"/><g id="bG"><use transform="matrix(0.05,0,0,0.05,0,0)" xlink:href="#cZ"/><use transform="matrix(0.05,0,0,0.05,14.950000000000001,0)" xlink:href="#cF"/><use transform="matrix(0.05,0,0,0.05,24.950000000000003,0)" xlink:href="#cr"/><use transform="matrix(0.05,0,0,0.05,28.900000000000002,0)" xlink:href="#cu"/><use transform="matrix(0.05,0,0,0.05,33.900000000000006,0)" xlink:href="#cv"/><use transform="matrix(0.05,0,0,0.05,37.85000000000001,0)" xlink:href="#da"/><use transform="matrix(0.05,0,0,0.05,47.85000000000001,0)" xlink:href="#cr"/><use transform="matrix(0.05,0,0,0.05,51.80000000000001,0)" xlink:href="#cs"/></g><g id="bH"><use transform="matrix(0.05,0,0,0.05,0,0)" xlink:href="#df"/><use transform="matrix(0.05,0,0,0.05,5,0)" xlink:href="#cv"/><use transform="matrix(0.05,0,0,0.05,8.95,0)" xlink:href="#cs"/><use transform="matrix(0.05,0,0,0.05,18.95,0)" xlink:href="#cr"/><use transform="matrix(0.05,0,0,0.05,22.9,0)" xlink:href="#db"/></g><g id="bI"><use transform="matrix(0.05,0,0,0.05,0,0)" xlink:href="#da"/><use transform="matrix(0.05,0,0,0.05,10,0)" xlink:href="#cP"/><use transform="matrix(0.05,0,0,0.05,15.949999999999998,0)" xlink:href="#cv"/><use transform="matrix(0.05,0,0,0.05,19.9,0)" xlink:href="#cZ"/><use transform="matrix(0.05,0,0,0.05,34.85,0)" xlink:href="#cy"/><use transform="matrix(0.05,0,0,0.05,44.85,0)" xlink:href="#cP"/><use transform="matrix(0.05,0,0,0.05,50.800000000000004,0)" xlink:href="#cA"/></g><path d="M143 0L79-87 56-68V0H24v-261h32v163l83-92h37l-77 82L181 0h-38" id="eh"/><g id="bJ"><use transform="matrix(0.05,0,0,0.05,0,0)" xlink:href="#eh"/><use transform="matrix(0.05,0,0,0.05,9,0)" xlink:href="#cs"/><use transform="matrix(0.05,0,0,0.05,19,0)" xlink:href="#cA"/><use transform="matrix(0.05,0,0,0.05,26.649999999999995,0)" xlink:href="#dr"/></g><g id="bK"><use transform="matrix(0.05,0,0,0.05,0,0)" xlink:href="#cc"/><use transform="matrix(0.05,0,0,0.05,10.950000000000001,0)" xlink:href="#cv"/><use transform="matrix(0.05,0,0,0.05,14.9,0)" xlink:href="#cs"/><use transform="matrix(0.05,0,0,0.05,24.900000000000002,0)" xlink:href="#cr"/><use transform="matrix(0.05,0,0,0.05,28.85,0)" xlink:href="#db"/><use transform="matrix(0.05,0,0,0.05,38.85,0)" xlink:href="#cz"/></g><g id="bL"><use transform="matrix(0.05,0,0,0.05,0,0)" xlink:href="#ct"/><use transform="matrix(0.05,0,0,0.05,9,0)" xlink:href="#cq"/><use transform="matrix(0.05,0,0,0.05,19,0)" xlink:href="#cZ"/><use transform="matrix(0.05,0,0,0.05,33.95,0)" xlink:href="#da"/><use transform="matrix(0.05,0,0,0.05,43.95,0)" xlink:href="#cP"/><use transform="matrix(0.05,0,0,0.05,49.900000000000006,0)" xlink:href="#cv"/><use transform="matrix(0.05,0,0,0.05,53.85,0)" xlink:href="#cz"/><use transform="matrix(0.05,0,0,0.05,62.85,0)" xlink:href="#cv"/><use transform="matrix(0.05,0,0,0.05,66.80000000000001,0)" xlink:href="#cw"/><use transform="matrix(0.05,0,0,0.05,76.80000000000001,0)" xlink:href="#cR"/></g><g id="bM"><use transform="matrix(0.05,0,0,0.05,0,0)" xlink:href="#cu"/><use transform="matrix(0.05,0,0,0.05,5,0)" xlink:href="#eg"/><use transform="matrix(0.05,0,0,0.05,15,0)" xlink:href="#cs"/></g><g id="bN"><use transform="matrix(0.05,0,0,0.05,0,0)" xlink:href="#da"/><use transform="matrix(0.05,0,0,0.05,10,0)" xlink:href="#cP"/><use transform="matrix(0.05,0,0,0.05,15.949999999999998,0)" xlink:href="#cv"/><use transform="matrix(0.05,0,0,0.05,19.9,0)" xlink:href="#cZ"/><use transform="matrix(0.05,0,0,0.05,34.85,0)" xlink:href="#cy"/><use transform="matrix(0.05,0,0,0.05,44.85,0)" xlink:href="#cP"/><use transform="matrix(0.05,0,0,0.05,50.800000000000004,0)" xlink:href="#cA"/></g><g id="bO"><use transform="matrix(0.05,0,0,0.05,0,0)" xlink:href="#eh"/><use transform="matrix(0.05,0,0,0.05,9,0)" xlink:href="#cs"/><use transform="matrix(0.05,0,0,0.05,19,0)" xlink:href="#cA"/><use transform="matrix(0.05,0,0,0.05,28,0)" xlink:href="#cz"/></g><g id="bP"><use transform="matrix(0.05,0,0,0.05,0,0)" xlink:href="#cy"/><use transform="matrix(0.05,0,0,0.05,10,0)" xlink:href="#cP"/><use transform="matrix(0.05,0,0,0.05,15.949999999999998,0)" xlink:href="#cs"/></g><path d="M206 0h-36l-40-164L89 0H53L-1-190h32L70-26l43-164h34l41 164 42-164h31" id="ei"/><g id="bQ"><use transform="matrix(0.05,0,0,0.05,0,0)" xlink:href="#cz"/><use transform="matrix(0.05,0,0,0.05,9,0)" xlink:href="#eg"/><use transform="matrix(0.05,0,0,0.05,19,0)" xlink:href="#cq"/><use transform="matrix(0.05,0,0,0.05,29,0)" xlink:href="#ei"/><use transform="matrix(0.05,0,0,0.05,41.95,0)" xlink:href="#cw"/></g><g id="bR"><use transform="matrix(0.05,0,0,0.05,0,0)" xlink:href="#dc"/><use transform="matrix(0.05,0,0,0.05,10,0)" xlink:href="#cq"/><use transform="matrix(0.05,0,0,0.05,20,0)" xlink:href="#cr"/><use transform="matrix(0.05,0,0,0.05,23.95,0)" xlink:href="#db"/></g></defs></g></svg>